<svg width="22" height="22" viewBox="0 0 22 22" fill="none" xmlns="http://www.w3.org/2000/svg">
<path id="Path 27" d="M21.3125 22C15.662 21.9938 10.2446 19.7464 6.24912 15.7509C2.25359 11.7554 0.00618718 6.33803 0 0.687509C0 0.505173 0.0724323 0.330305 0.201364 0.201374C0.330295 0.0724426 0.505164 9.77504e-06 0.6875 9.77504e-06H4.59937C4.93588 -0.00092333 5.26923 0.0649567 5.58008 0.19383C5.89093 0.322703 6.17311 0.512005 6.41025 0.750759L9.108 3.44713C9.29966 3.63867 9.4517 3.8661 9.55544 4.11642C9.65917 4.36674 9.71256 4.63505 9.71256 4.90601C9.71256 5.17697 9.65917 5.44528 9.55544 5.6956C9.4517 5.94592 9.29966 6.17334 9.108 6.36488L7.15 8.31601C8.65544 11.0762 10.9238 13.3446 13.684 14.85L15.6351 12.8975C16.0219 12.5108 16.5464 12.2936 17.0933 12.2936C17.6402 12.2936 18.1647 12.5108 18.5515 12.8975L21.2492 15.5953C21.4873 15.832 21.6762 16.1136 21.8051 16.4236C21.9339 16.7337 22.0002 17.0662 22 17.402V21.3125C22 21.4948 21.9276 21.6697 21.7986 21.7986C21.6697 21.9276 21.4948 22 21.3125 22ZM1.38738 1.37501C1.56771 6.41982 3.65236 11.2091 7.22174 14.7787C10.7911 18.3483 15.5802 20.4333 20.625 20.614V17.402C20.6254 17.2459 20.5949 17.0913 20.5351 16.9471C20.4754 16.8029 20.3877 16.672 20.2771 16.5619L17.5794 13.8641C17.4504 13.7352 17.2756 13.6628 17.0933 13.6628C16.911 13.6628 16.7362 13.7352 16.6072 13.8641L14.3 16.1741C14.1978 16.2763 14.066 16.3436 13.9233 16.3665C13.7806 16.3895 13.6344 16.3669 13.5053 16.302C10.139 14.5975 7.40449 11.8634 5.69938 8.49751C5.63397 8.36838 5.61099 8.22191 5.6337 8.07896C5.65641 7.93601 5.72367 7.80387 5.82587 7.70138L8.13587 5.39276C8.1999 5.32889 8.2507 5.25303 8.28536 5.1695C8.32001 5.08598 8.33785 4.99644 8.33785 4.90601C8.33785 4.81558 8.32001 4.72604 8.28536 4.64251C8.2507 4.55899 8.1999 4.48312 8.13587 4.41926L5.43812 1.72288C5.32823 1.61237 5.19752 1.52473 5.05356 1.46502C4.9096 1.40531 4.75523 1.37472 4.59937 1.37501H1.38738Z" fill="#EE3764"/>
</svg>
