<svg width="12" height="18" viewBox="0 0 12 18" fill="none" xmlns="http://www.w3.org/2000/svg">
<g id="Group">
<path id="Vector" d="M1.0996 0C0.501992 0 0 0.50262 0 1.10098V16.5865C0 16.7779 0.119522 16.9694 0.310757 17.0412C0.501992 17.113 0.717131 17.0412 0.836653 16.8976L6 10.6268L11.1633 16.9216C11.259 17.0412 11.4024 17.0891 11.5219 17.0891C11.5697 17.0891 11.6414 17.0891 11.6892 17.0652C11.8805 16.9934 12 16.8258 12 16.6104V1.12491C12 0.526555 11.498 0.0239342 10.9004 0.0239342H1.0996V0ZM11.0677 1.12491V15.2701L6.35857 9.54979C6.26295 9.43012 6.14343 9.38225 6 9.38225C5.85657 9.38225 5.71315 9.45405 5.64143 9.54979L0.932271 15.2701V1.12491C0.932271 1.05311 1.00398 0.981306 1.0757 0.981306H10.9004C10.996 0.957372 11.0677 1.02917 11.0677 1.12491Z" fill="#EF2B7B"/>
</g>
</svg>
