<svg width="15" height="22" viewBox="0 0 15 22" fill="none" xmlns="http://www.w3.org/2000/svg">
<path d="M1.3745 0.523438C0.62749 0.523438 0 1.14318 0 1.88097V20.975C0 21.2111 0.149403 21.4471 0.388447 21.5357C0.62749 21.6242 0.896414 21.5357 1.04582 21.3586L7.5 13.6266L13.9542 21.3881C14.0737 21.5357 14.253 21.5947 14.4024 21.5947C14.4622 21.5947 14.5518 21.5947 14.6116 21.5652C14.8506 21.4767 15 21.2701 15 21.0045V1.91048C15 1.17269 14.3725 0.552949 13.6255 0.552949H1.3745V0.523438ZM13.8347 1.91048V19.3518L7.94821 12.2986C7.82869 12.151 7.67928 12.092 7.5 12.092C7.32072 12.092 7.14144 12.1805 7.05179 12.2986L1.16534 19.3518V1.91048C1.16534 1.82195 1.25498 1.73341 1.34462 1.73341H13.6255C13.745 1.7039 13.8347 1.79244 13.8347 1.91048Z" fill="#EF2B7B"/>
</svg>
