<svg width="30" height="28" viewBox="0 0 30 28" fill="none" xmlns="http://www.w3.org/2000/svg">
<rect x="0.0269775" width="29.4354" height="27.9716" rx="9" transform="rotate(0.0552841 0.0269775 0)" fill="#EF2B7B"/>
<path d="M10.1071 12.8026C10.1071 13.7103 10.3762 14.5977 10.8806 15.3525C11.3849 16.1073 12.1017 16.6955 12.9404 17.0429C13.779 17.3903 14.7018 17.4812 15.5922 17.3041C16.4825 17.127 17.3003 16.6899 17.9422 16.048C18.584 15.4061 19.0212 14.5883 19.1983 13.698C19.3753 12.8077 19.2845 11.8848 18.9371 11.0462C18.5897 10.2075 18.0014 9.49072 17.2466 8.98639C16.4919 8.48207 15.6045 8.21289 14.6968 8.21289C13.4799 8.21426 12.3133 8.69826 11.4529 9.5587C10.5924 10.4191 10.1084 11.5857 10.1071 12.8026ZM14.6968 8.84591C15.4793 8.84591 16.2443 9.07796 16.895 9.51273C17.5456 9.94749 18.0528 10.5654 18.3522 11.2884C18.6517 12.0114 18.7301 12.807 18.5774 13.5745C18.4247 14.342 18.0479 15.047 17.4945 15.6004C16.9412 16.1537 16.2362 16.5306 15.4687 16.6832C14.7011 16.8359 13.9056 16.7576 13.1826 16.4581C12.4596 16.1586 11.8417 15.6515 11.4069 15.0008C10.9721 14.3501 10.7401 13.5851 10.7401 12.8026C10.7413 11.7536 11.1585 10.7479 11.9003 10.0061C12.642 9.26433 13.6477 8.84709 14.6968 8.84591Z" fill="white"/>
<path d="M20.8475 18.1721L18.368 19.3435C18.1998 19.0307 17.9521 18.7678 17.6499 18.5813C17.3476 18.3948 17.0015 18.2913 16.6465 18.2813L14.3576 18.2184C13.9951 18.208 13.6396 18.1162 13.3174 17.9497L13.0845 17.8291C12.4969 17.5229 11.844 17.3633 11.1815 17.364C10.5189 17.3647 9.86636 17.5256 9.27946 17.8331L9.29398 17.3055C9.29512 17.2639 9.28807 17.2225 9.27322 17.1837C9.25838 17.1449 9.23603 17.1094 9.20746 17.0792C9.17889 17.049 9.14465 17.0247 9.10671 17.0078C9.06876 16.9908 9.02784 16.9815 8.98629 16.9804L6.47641 16.9113C6.43486 16.9101 6.39349 16.9172 6.35467 16.932C6.31584 16.9469 6.28032 16.9692 6.25013 16.9978C6.21994 17.0264 6.19568 17.0606 6.17872 17.0986C6.16177 17.1365 6.15246 17.1774 6.15132 17.219L5.99975 22.7267C5.99745 22.8106 6.02858 22.892 6.08629 22.953C6.144 23.0139 6.22357 23.0495 6.30748 23.0518L8.81731 23.1208H8.82618C8.90859 23.1208 8.98773 23.0886 9.04678 23.0311C9.10584 22.9737 9.14014 22.8954 9.14241 22.813L9.14965 22.5495L9.80166 22.2004C10.0575 22.0627 10.3569 22.03 10.6364 22.109L14.5299 23.2019C14.5367 23.2038 14.5436 23.2055 14.5505 23.207C14.832 23.2658 15.1187 23.2954 15.4062 23.2952C16.0152 23.2956 16.617 23.1643 17.1704 22.9103C17.184 22.904 17.1971 22.8968 17.2097 22.8886L22.855 19.2369C22.9227 19.1931 22.9712 19.1251 22.9905 19.0468C23.0097 18.9684 22.9984 18.8857 22.9587 18.8154C22.7569 18.4574 22.425 18.1908 22.0319 18.071C21.6388 17.9512 21.2146 17.9874 20.8475 18.1721ZM6.64124 22.4277L6.77544 17.5527L8.65249 17.6044L8.51829 22.4794L6.64124 22.4277ZM16.8853 22.3449C16.1977 22.6552 15.4298 22.7409 14.6907 22.5898L10.8076 21.4998C10.3707 21.3763 9.90285 21.4275 9.50295 21.6426L9.16983 21.821L9.25904 18.5797C9.77742 18.2349 10.3788 18.0355 11.0005 18.0024C11.6222 17.9692 12.2414 18.1035 12.7935 18.3912L13.0263 18.5119C13.4334 18.7221 13.8825 18.838 14.3404 18.8513L16.6291 18.9142C16.9415 18.9232 17.2416 19.0373 17.4811 19.238C17.7205 19.4388 17.8852 19.7144 17.9486 20.0203L14.5392 19.9263C14.4553 19.924 14.3738 19.9551 14.3129 20.0128C14.2519 20.0706 14.2163 20.1502 14.214 20.2341C14.2117 20.318 14.2428 20.3995 14.3006 20.4605C14.3583 20.5214 14.4379 20.557 14.5218 20.5593L18.2843 20.6628H18.2932C18.3756 20.6628 18.4547 20.6306 18.5138 20.5731C18.5729 20.5157 18.6072 20.4374 18.6094 20.355C18.6133 20.2174 18.603 20.0798 18.5789 19.9443L21.1218 18.7429L21.1293 18.7392C21.3054 18.65 21.5046 18.6169 21.7001 18.6443C21.8956 18.6717 22.078 18.7582 22.2228 18.8924L16.8853 22.3449Z" fill="white"/>
<path d="M15.0145 7.32334V4.31651C15.0145 4.23257 14.9811 4.15206 14.9218 4.0927C14.8624 4.03335 14.7819 4 14.698 4C14.614 4 14.5335 4.03335 14.4742 4.0927C14.4148 4.15206 14.3815 4.23257 14.3815 4.31651V7.32334C14.3815 7.40729 14.4148 7.48779 14.4742 7.54715C14.5335 7.60651 14.614 7.63985 14.698 7.63985C14.7819 7.63985 14.8624 7.60651 14.9218 7.54715C14.9811 7.48779 15.0145 7.40729 15.0145 7.32334Z" fill="white"/>
<path d="M17.3885 7.32283V5.89854C17.3885 5.8146 17.3552 5.73409 17.2958 5.67473C17.2365 5.61538 17.1559 5.58203 17.072 5.58203C16.9881 5.58203 16.9076 5.61538 16.8482 5.67473C16.7888 5.73409 16.7555 5.8146 16.7555 5.89854V7.32283C16.7555 7.40677 16.7888 7.48728 16.8482 7.54664C16.9076 7.60599 16.9881 7.63934 17.072 7.63934C17.1559 7.63934 17.2365 7.60599 17.2958 7.54664C17.3552 7.48728 17.3885 7.40677 17.3885 7.32283Z" fill="white"/>
<path d="M12.6405 7.32283V5.89854C12.6405 5.8146 12.6071 5.73409 12.5478 5.67473C12.4884 5.61538 12.4079 5.58203 12.324 5.58203C12.24 5.58203 12.1595 5.61538 12.1001 5.67473C12.0408 5.73409 12.0074 5.8146 12.0074 5.89854V7.32283C12.0074 7.40677 12.0408 7.48728 12.1001 7.54664C12.1595 7.60599 12.24 7.63934 12.324 7.63934C12.4079 7.63934 12.4884 7.60599 12.5478 7.54664C12.6071 7.48728 12.6405 7.40677 12.6405 7.32283Z" fill="white"/>
<path d="M13.5696 13.765V13.445H14.3696C14.733 13.445 15.0013 13.3683 15.1746 13.215C15.3513 13.0617 15.4396 12.8617 15.4396 12.615C15.4396 12.3383 15.3463 12.12 15.1596 11.96C14.9763 11.7967 14.7046 11.7167 14.3446 11.72L13.1196 11.725V11.5H16.3396V11.72H14.9896L15.0946 11.62C15.3413 11.7033 15.5213 11.835 15.6346 12.015C15.748 12.1917 15.8046 12.3933 15.8046 12.62C15.8046 12.8567 15.748 13.0617 15.6346 13.235C15.5213 13.405 15.358 13.5367 15.1446 13.63C14.9313 13.72 14.6763 13.765 14.3796 13.765H13.5696ZM15.4596 15L14.5446 13.615H14.9496L15.8646 15H15.4596ZM13.1196 12.42V12.195H16.3396V12.42H13.1196Z" fill="white"/>
</svg>
