<svg width="15" height="15" viewBox="0 0 15 15" fill="none" xmlns="http://www.w3.org/2000/svg">
<path id="calendar-[#1196]" fill-rule="evenodd" clip-rule="evenodd" d="M13.5 12.75C13.5 13.164 13.164 13.5 12.75 13.5H2.25C1.836 13.5 1.5 13.164 1.5 12.75V5.25C1.5 4.836 1.836 4.5 2.25 4.5H12.75C13.164 4.5 13.5 4.836 13.5 5.25V12.75ZM13.5 1.5V0.75C13.5 0.336 13.164 0 12.75 0C12.336 0 12 0.336 12 0.75V1.5H8.25V0.75C8.25 0.336 7.914 0 7.5 0C7.086 0 6.75 0.336 6.75 0.75V1.5H3V0.75C3 0.336 2.664 0 2.25 0C1.836 0 1.5 0.336 1.5 0.75V1.5C0.67125 1.5 0 2.17125 0 3V13.5C0 14.328 0.67125 15 1.5 15H13.5C14.3287 15 15 14.328 15 13.5V3C15 2.17125 14.3287 1.5 13.5 1.5Z" fill="#EE3764"/>
</svg>
