<svg width="15" height="15" viewBox="0 0 15 15" fill="none" xmlns="http://www.w3.org/2000/svg">
<path id="Path 27" d="M14.5312 15C10.6786 14.9958 6.98499 13.4635 4.26076 10.7392C1.53654 8.01501 0.00421853 4.32139 0 0.468756C0 0.344436 0.0493857 0.225208 0.137293 0.1373C0.225201 0.0493927 0.34443 6.6648e-06 0.46875 6.6648e-06H3.13594C3.36537 -0.000629543 3.59266 0.0442887 3.8046 0.132157C4.01655 0.220025 4.20894 0.349094 4.37063 0.511881L6.21 2.35032C6.34068 2.48091 6.44434 2.63598 6.51507 2.80665C6.5858 2.97732 6.6222 3.16026 6.6222 3.34501C6.6222 3.52975 6.5858 3.71269 6.51507 3.88336C6.44434 4.05403 6.34068 4.2091 6.21 4.33969L4.875 5.67C5.90143 7.55196 7.44804 9.09857 9.33 10.125L10.6603 8.79375C10.924 8.53012 11.2816 8.38202 11.6545 8.38202C12.0274 8.38202 12.385 8.53012 12.6488 8.79375L14.4881 10.6331C14.6504 10.7946 14.7792 10.9865 14.8671 11.1979C14.9549 11.4094 15.0001 11.6361 15 11.865V14.5312C15 14.6556 14.9506 14.7748 14.8627 14.8627C14.7748 14.9506 14.6556 15 14.5312 15ZM0.945938 0.937506C1.06889 4.37715 2.49025 7.64253 4.92391 10.0764C7.35758 12.5102 10.6229 13.9318 14.0625 14.055V11.865C14.0628 11.7586 14.042 11.6532 14.0012 11.5549C13.9605 11.4565 13.9007 11.3673 13.8253 11.2922L11.9859 9.45282C11.898 9.36494 11.7788 9.31557 11.6545 9.31557C11.5302 9.31557 11.411 9.36494 11.3231 9.45282L9.75 11.0278C9.6803 11.0975 9.59043 11.1434 9.49316 11.159C9.39588 11.1747 9.29615 11.1593 9.20813 11.115C6.91299 9.95283 5.04851 8.08869 3.88594 5.79375C3.84134 5.70572 3.82567 5.60585 3.84116 5.50838C3.85665 5.41091 3.9025 5.32082 3.97219 5.25094L5.54719 3.67688C5.59084 3.63334 5.62547 3.58161 5.64911 3.52466C5.67274 3.46771 5.6849 3.40666 5.6849 3.34501C5.6849 3.28335 5.67274 3.2223 5.64911 3.16535C5.62547 3.1084 5.59084 3.05667 5.54719 3.01313L3.70781 1.17469C3.63288 1.09934 3.54377 1.03959 3.44561 0.998876C3.34745 0.958165 3.2422 0.937307 3.13594 0.937506H0.945938Z" fill="#EE3764"/>
</svg>
