<svg width="18" height="18" viewBox="0 0 18 18" fill="none" xmlns="http://www.w3.org/2000/svg">
<g id="Group 1000003610">
<path id="Vector" d="M9 0C4.04 0 0 4.04 0 9C0 13.96 4.04 18 9 18C13.96 18 18 13.96 18 9C18 4.04 13.96 0 9 0ZM9 16.76C4.72 16.76 1.24 13.28 1.24 9C1.24 4.72 4.72 1.24 9 1.24C13.28 1.24 16.76 4.72 16.76 9C16.76 13.28 13.28 16.76 9 16.76Z" fill="#EF2B7B"/>
<path id="Vector_2" d="M12.6202 5.79998C12.3602 5.53998 11.9402 5.53998 11.6802 5.79998L9.20022 8.25998L6.74022 5.79998C6.48022 5.53998 6.06022 5.53998 5.80022 5.79998C5.54022 6.05998 5.54022 6.47998 5.80022 6.73998L8.26022 9.19998L5.80022 11.68C5.54022 11.94 5.54022 12.36 5.80022 12.62C5.92022 12.74 6.10022 12.82 6.26022 12.82C6.42022 12.82 6.60022 12.76 6.72022 12.62L9.20022 10.14L11.6602 12.6C11.7802 12.72 11.9602 12.8 12.1202 12.8C12.3002 12.8 12.4602 12.74 12.5802 12.6C12.8402 12.34 12.8402 11.92 12.5802 11.66L10.1402 9.19998L12.6002 6.73998C12.8802 6.47998 12.8802 6.05998 12.6202 5.79998Z" fill="#EF2B7B"/>
</g>
</svg>
