<svg width="30" height="28" viewBox="0 0 30 28" fill="none" xmlns="http://www.w3.org/2000/svg">
<g id="Group 1000003596">
<rect id="Rectangle 17624" x="0.0269775" width="29.4354" height="27.9716" rx="9" transform="rotate(0.0552841 0.0269775 0)" fill="#EF2B7B"/>
<path id="Vector" d="M9.08112 4.11267L8.43625 4.74345C7.96889 4.29217 7.34456 4.03013 6.68817 4.00976C6.03178 3.9894 5.39172 4.2122 4.89606 4.63361C4.40039 5.05502 4.08567 5.64395 4.01484 6.28258C3.94401 6.92122 4.12231 7.56246 4.51406 8.07803C4.90581 8.59361 5.48212 8.94549 6.12771 9.06328C6.7733 9.18107 7.44055 9.05609 7.99598 8.71334C8.5514 8.37058 8.95405 7.83533 9.12336 7.21467C9.29268 6.594 9.21617 5.93369 8.90916 5.36583L9.63635 4.65451C9.67272 4.61885 9.70156 4.57653 9.72121 4.52997C9.74086 4.48341 9.75095 4.43352 9.75089 4.38314C9.75083 4.33277 9.74062 4.2829 9.72086 4.23638C9.7011 4.18987 9.67216 4.14761 9.63571 4.11204C9.59925 4.07646 9.55598 4.04825 9.50838 4.02903C9.46078 4.00981 9.40978 3.99994 9.35828 4C9.30678 4.00006 9.2558 4.01004 9.20824 4.02937C9.16069 4.0487 9.11749 4.07701 9.08112 4.11267ZM8.42572 6.55423C8.42633 6.96653 8.28093 7.3663 8.01425 7.68559C7.74757 8.00487 7.37607 8.22395 6.96291 8.30557C6.54976 8.3872 6.12045 8.32633 5.74799 8.13332C5.37553 7.94031 5.08291 7.62707 4.91988 7.24687C4.75685 6.86666 4.73347 6.44296 4.85373 6.0478C4.97399 5.65264 5.23046 5.31042 5.57952 5.07932C5.92859 4.84823 6.34871 4.74253 6.76844 4.7802C7.18818 4.81786 7.58163 4.99657 7.88188 5.28593L6.60461 6.5351L5.78542 5.73379C5.71141 5.66426 5.61248 5.62588 5.50987 5.6269C5.40726 5.62791 5.30915 5.66823 5.23659 5.73921C5.16403 5.81018 5.1228 5.90615 5.12177 6.00652C5.12073 6.10689 5.15997 6.20366 5.23105 6.27605L6.32732 7.34839C6.40085 7.42028 6.50055 7.46067 6.60451 7.46067C6.70846 7.46067 6.80817 7.42028 6.88169 7.34839L8.31609 5.94531C8.38877 6.14045 8.42588 6.34655 8.42572 6.55423ZM10.2462 6.55129C10.2462 6.44961 10.2876 6.35211 10.3611 6.28023C10.4346 6.20836 10.5343 6.16798 10.6383 6.16798H23.5984C23.6506 6.16678 23.7026 6.17581 23.7512 6.19454C23.7998 6.21328 23.8441 6.24133 23.8815 6.27705C23.9189 6.31277 23.9486 6.35544 23.9689 6.40255C23.9892 6.44967 23.9996 6.50027 23.9996 6.55139C23.9996 6.60251 23.9892 6.65312 23.9689 6.70023C23.9486 6.74734 23.9189 6.79001 23.8815 6.82574C23.8441 6.86146 23.7998 6.88951 23.7512 6.90824C23.7026 6.92697 23.6506 6.936 23.5984 6.93481H10.6383C10.5868 6.93481 10.5358 6.92489 10.4882 6.90561C10.4406 6.88634 10.3974 6.85809 10.361 6.82248C10.3246 6.78686 10.2957 6.74458 10.276 6.69805C10.2563 6.65152 10.2462 6.60165 10.2462 6.55129ZM9.08112 11.0591L8.43625 11.6899C7.96889 11.2386 7.34456 10.9766 6.68817 10.9562C6.03178 10.9358 5.39172 11.1586 4.89606 11.58C4.40039 12.0014 4.08567 12.5904 4.01484 13.229C3.94401 13.8676 4.12231 14.5089 4.51406 15.0245C4.90581 15.54 5.48212 15.8919 6.12771 16.0097C6.7733 16.1275 7.44055 16.0025 7.99598 15.6598C8.5514 15.317 8.95405 14.7818 9.12336 14.1611C9.29268 13.5404 9.21617 12.8801 8.90916 12.3123L9.63635 11.6012C9.70984 11.5291 9.75106 11.4315 9.75096 11.3298C9.75086 11.228 9.70944 11.1305 9.63581 11.0586C9.56218 10.9867 9.46238 10.9464 9.35836 10.9465C9.25433 10.9466 9.15461 10.9871 9.08112 11.0591ZM8.42572 13.5009C8.42631 13.9131 8.28091 14.3128 8.01426 14.6321C7.7476 14.9513 7.37614 15.1703 6.96304 15.2519C6.54994 15.3335 6.12069 15.2727 5.74829 15.0797C5.37588 14.8867 5.0833 14.5735 4.92029 14.1933C4.75728 13.8132 4.73391 13.3895 4.85415 12.9944C4.97438 12.5993 5.23081 12.2571 5.57982 12.0261C5.92883 11.795 6.34889 11.6893 6.76857 11.727C7.18825 11.7646 7.58165 11.9433 7.88188 12.2326L6.60461 13.4819L5.78542 12.6804C5.74929 12.6436 5.70602 12.6143 5.65814 12.594C5.61027 12.5738 5.55874 12.5631 5.50659 12.5626C5.45444 12.5621 5.40271 12.5717 5.35442 12.591C5.30614 12.6103 5.26227 12.6388 5.22539 12.6749C5.18851 12.711 5.15936 12.7539 5.13965 12.8011C5.11993 12.8483 5.11005 12.8989 5.11058 12.95C5.1111 13.001 5.12203 13.0514 5.14271 13.0982C5.1634 13.145 5.19343 13.1874 5.23105 13.2227L6.32732 14.295C6.40085 14.3669 6.50055 14.4073 6.60451 14.4073C6.70846 14.4073 6.80817 14.3669 6.88169 14.295L8.31609 12.892C8.38874 13.0871 8.42585 13.2932 8.42572 13.5009ZM23.9905 13.4981C23.9905 13.5999 23.9491 13.6974 23.8756 13.7693C23.8021 13.8413 23.7024 13.8817 23.5984 13.8817H10.6383C10.5343 13.8817 10.4345 13.8413 10.361 13.7693C10.2875 13.6974 10.2462 13.5999 10.2462 13.4981C10.2462 13.3964 10.2875 13.2989 10.361 13.2269C10.4345 13.155 10.5343 13.1146 10.6383 13.1146H23.5984C23.7024 13.1146 23.8021 13.155 23.8756 13.2269C23.9491 13.2989 23.9905 13.3964 23.9905 13.4981ZM9.08112 18.0062L8.43625 18.6369C7.96889 18.1857 7.34456 17.9236 6.68817 17.9033C6.03178 17.8829 5.39172 18.1057 4.89606 18.5271C4.40039 18.9485 4.08567 19.5374 4.01484 20.1761C3.94401 20.8147 4.12231 21.456 4.51406 21.9715C4.90581 22.4871 5.48212 22.839 6.12771 22.9568C6.7733 23.0746 7.44055 22.9496 7.99598 22.6068C8.5514 22.2641 8.95405 21.7288 9.12336 21.1082C9.29268 20.4875 9.21617 19.8272 8.90916 19.2593L9.63635 18.548C9.70981 18.476 9.75101 18.3784 9.75089 18.2766C9.75077 18.1749 9.70933 18.0774 9.63571 18.0055C9.56208 17.9337 9.46228 17.8934 9.35828 17.8935C9.25427 17.8936 9.15458 17.9341 9.08112 18.0062ZM8.42572 20.4477C8.42633 20.86 8.28093 21.2598 8.01425 21.5791C7.74757 21.8984 7.37607 22.1174 6.96291 22.1991C6.54976 22.2807 6.12045 22.2198 5.74799 22.0268C5.37553 21.8338 5.08291 21.5206 4.91988 21.1404C4.75685 20.7602 4.73347 20.3364 4.85373 19.9413C4.97399 19.5461 5.23046 19.2039 5.57952 18.9728C5.92859 18.7417 6.34871 18.636 6.76844 18.6737C7.18818 18.7114 7.58163 18.8901 7.88188 19.1794L6.60461 20.4286L5.78542 19.6273C5.71141 19.5578 5.61248 19.5194 5.50987 19.5204C5.40726 19.5214 5.30915 19.5617 5.23659 19.6327C5.16403 19.7037 5.1228 19.7996 5.12177 19.9C5.12073 20.0004 5.15997 20.0972 5.23105 20.1695L6.32732 21.2419C6.40085 21.3138 6.50055 21.3542 6.60451 21.3542C6.70846 21.3542 6.80817 21.3138 6.88169 21.2419L8.31609 19.8388C8.38877 20.0339 8.42588 20.24 8.42572 20.4477ZM23.9905 20.445C23.9905 20.4953 23.9803 20.5452 23.9606 20.5917C23.9409 20.6382 23.912 20.6805 23.8756 20.7161C23.8392 20.7517 23.796 20.7799 23.7484 20.7992C23.7008 20.8184 23.6499 20.8283 23.5984 20.8283H10.6383C10.586 20.8295 10.534 20.8205 10.4854 20.8017C10.4368 20.783 10.3925 20.755 10.3551 20.7192C10.3177 20.6835 10.288 20.6408 10.2677 20.5937C10.2474 20.5466 10.237 20.496 10.237 20.4449C10.237 20.3938 10.2474 20.3432 10.2677 20.296C10.288 20.2489 10.3177 20.2063 10.3551 20.1705C10.3925 20.1348 10.4368 20.1068 10.4854 20.088C10.534 20.0693 10.586 20.0603 10.6383 20.0615H23.5984C23.6499 20.0615 23.7008 20.0714 23.7484 20.0907C23.796 20.1099 23.8392 20.1382 23.8756 20.1738C23.912 20.2094 23.9409 20.2517 23.9606 20.2982C23.9803 20.3448 23.9905 20.3946 23.9905 20.445Z" fill="white"/>
</g>
</svg>
