<svg width="30" height="28" viewBox="0 0 30 28" fill="none" xmlns="http://www.w3.org/2000/svg">
<g id="Group 1000003594">
<rect id="Rectangle 17614" x="0.0269775" width="29.4354" height="27.9716" rx="9" transform="rotate(0.0552841 0.0269775 0)" fill="#EF2B7B"/>
<path id="Vector" d="M21.8056 10.5261C21.6843 10.4441 21.5305 10.4285 21.3955 10.4848L19.0442 11.4631V10.8229C19.0442 9.81778 18.2347 9 17.2396 9H9.80423C8.80918 8.99982 7.99963 9.8176 7.99963 10.8229V17.1769C7.99963 18.182 8.80918 19 9.80423 19H17.2395C18.2345 19 19.0441 18.1822 19.0441 17.1769V16.5368L21.3954 17.5151C21.4489 17.5373 21.5056 17.5483 21.562 17.5483C21.6474 17.5483 21.7324 17.523 21.8054 17.4735C21.9268 17.3915 21.9996 17.2538 21.9996 17.1063V10.8933C21.9996 10.7459 21.9268 10.6082 21.8056 10.5261ZM18.1692 17.1769C18.1692 17.6947 17.7522 18.1161 17.2396 18.1161H9.80423C9.29166 18.1161 8.87463 17.6948 8.87463 17.1769V10.8229C8.87463 10.3052 9.29166 9.88389 9.80423 9.88389H17.2395C17.752 9.88389 18.1691 10.3052 18.1691 10.8229L18.1692 17.1769ZM21.1246 16.4464L19.0442 15.5808V12.4189L21.1246 11.5534V16.4464ZM17.0856 11.4906C17.0856 11.7348 16.8898 11.9326 16.6481 11.9326H15.028C14.7863 11.9326 14.5905 11.7348 14.5905 11.4906C14.5905 11.2465 14.7863 11.0487 15.028 11.0487H16.6481C16.8898 11.0487 17.0856 11.2465 17.0856 11.4906Z" fill="white"/>
</g>
</svg>
