<svg width="21" height="22" viewBox="0 0 21 22" fill="none" xmlns="http://www.w3.org/2000/svg">
<path id="Vector" d="M20 9H1M14.7222 1V5M6.27778 1V5M8.91667 13L10.5 12V17M9.18056 17H11.8194M6.06667 21H14.9333C16.7069 21 17.5935 21 18.271 20.673C18.8669 20.3854 19.3513 19.9265 19.6548 19.362C20 18.7202 20 17.8802 20 16.2V7.8C20 6.11984 20 5.27976 19.6548 4.63803C19.3513 4.07354 18.8669 3.6146 18.271 3.32698C17.5935 3 16.7069 3 14.9333 3H6.06667C4.29316 3 3.40641 3 2.72903 3.32698C2.13318 3.6146 1.64874 4.07354 1.34515 4.63803C1 5.27976 1 6.11984 1 7.8V16.2C1 17.8802 1 18.7202 1.34515 19.362C1.64874 19.9265 2.13318 20.3854 2.72903 20.673C3.40641 21 4.29316 21 6.06667 21Z" stroke="#EE3764" stroke-linecap="round" stroke-linejoin="round"/>
</svg>
