<svg width="18" height="19" viewBox="0 0 18 19" fill="none" xmlns="http://www.w3.org/2000/svg">
<g id="Group 1000003149">
<path id="Vector" d="M4.36704 5.05683C5.4873 5.05683 6.39546 4.14868 6.39546 3.02842C6.39546 1.90815 5.4873 1 4.36704 1C3.24678 1 2.33862 1.90815 2.33862 3.02842C2.33862 4.14868 3.24678 5.05683 4.36704 5.05683Z" stroke="#EE3764" stroke-width="1.2" stroke-linecap="round"/>
<path id="Vector_2" d="M2.12922 17.7695V13.4449C2.12916 13.3385 2.10649 13.2332 2.06271 13.1362C2.01892 13.0392 1.95502 12.9525 1.87524 12.8821L1.12703 12.1956C1.08652 12.1609 1.05414 12.1177 1.0322 12.069C1.01025 12.0204 0.999271 11.9675 1.00004 11.9142V7.45235C1.00094 7.25236 1.08078 7.06083 1.22219 6.91942C1.3636 6.77801 1.55514 6.69817 1.75512 6.69727H6.59106C6.89176 6.69817 7.17984 6.81827 7.39215 7.03122C7.60446 7.24417 7.72368 7.53261 7.72368 7.83332V11.9519C7.72436 11.9995 7.71561 12.0468 7.69794 12.0909C7.68026 12.1351 7.65402 12.1754 7.62071 12.2093L6.89652 12.985C6.76366 13.1248 6.68988 13.3104 6.69059 13.5033V17.7695" stroke="#EE3764" stroke-width="1.2" stroke-linecap="round"/>
<path id="Vector_3" d="M11.0528 18.1507V14.3753C11.0528 14.2706 11.0113 14.1702 10.9372 14.0962C10.8632 14.0222 10.7628 13.9806 10.6581 13.9806H9.69714C9.6329 13.9791 9.56998 13.962 9.51375 13.9309C9.45753 13.8998 9.40966 13.8556 9.37425 13.8019C9.33885 13.7483 9.31694 13.6869 9.31041 13.623C9.30388 13.5591 9.31292 13.4945 9.33676 13.4349L11.6089 7.25694C11.6368 7.18092 11.6872 7.11523 11.7535 7.06862C11.8197 7.02201 11.8986 6.99671 11.9795 6.99609H14.3821C14.464 6.99627 14.544 7.02175 14.6109 7.06905C14.6779 7.11635 14.7286 7.18316 14.7562 7.26037L16.9768 13.4383C16.9982 13.4983 17.0049 13.5626 16.9963 13.6257C16.9878 13.6889 16.9642 13.749 16.9275 13.8012C16.8908 13.8533 16.8422 13.8959 16.7857 13.9253C16.7292 13.9547 16.6664 13.9701 16.6027 13.9703H15.573C15.5199 13.9698 15.4672 13.98 15.418 14.0002C15.3688 14.0205 15.3242 14.0503 15.2868 14.0881C15.2494 14.1258 15.2199 14.1707 15.2001 14.22C15.1803 14.2693 15.1705 14.3221 15.1715 14.3753V18.1507" stroke="#EE3764" stroke-width="1.2" stroke-linecap="round"/>
<path id="Vector_4" d="M13.1465 5.05683C14.2667 5.05683 15.1749 4.14868 15.1749 3.02842C15.1749 1.90815 14.2667 1 13.1465 1C12.0262 1 11.118 1.90815 11.118 3.02842C11.118 4.14868 12.0262 5.05683 13.1465 5.05683Z" stroke="#EE3764" stroke-width="1.2" stroke-linecap="round"/>
</g>
</svg>
