<svg width="23" height="30" viewBox="0 0 23 30" fill="none" xmlns="http://www.w3.org/2000/svg">
<g id="Group">
<path id="Vector" d="M19.6962 3.13636H18.8181C18.8158 2.30538 18.4844 1.50892 17.8968 0.921314C17.3092 0.333709 16.5127 0.00232987 15.6818 0H7.31812C6.48714 0.00233357 5.69068 0.333703 5.10307 0.921314C4.51547 1.50893 4.18409 2.30538 4.18176 3.13636H3.30364C2.42808 3.13823 1.58867 3.48687 0.969584 4.10595C0.350496 4.72502 0.00185195 5.56445 0 6.44V25.9691C0.00186688 26.8446 0.350508 27.6841 0.969584 28.3031C1.58866 28.9222 2.42808 29.2709 3.30364 29.2727H19.6964C20.5719 29.2709 21.4113 28.9222 22.0304 28.3031C22.6495 27.6841 22.9981 26.8446 23 25.9691V6.44C22.9981 5.56445 22.6495 4.72504 22.0304 4.10595C21.4113 3.48686 20.5719 3.13822 19.6964 3.13636H19.6962ZM7.31806 2.09091H15.6817C15.9587 2.09184 16.2243 2.20222 16.42 2.39801C16.6158 2.5938 16.7262 2.85937 16.7271 3.13634V5.22725C16.7262 5.50425 16.6158 5.76981 16.42 5.96558C16.2242 6.16135 15.9587 6.27175 15.6817 6.27268H7.31806C7.04106 6.27175 6.7755 6.16137 6.57973 5.96558C6.38396 5.76979 6.27356 5.50422 6.27263 5.22725V3.13634C6.27356 2.85934 6.38395 2.59378 6.57973 2.39801C6.77552 2.20224 7.04109 2.09184 7.31806 2.09091ZM20.909 25.9691C20.9087 26.2907 20.7809 26.5989 20.5536 26.8265C20.326 27.0538 20.0178 27.1817 19.6962 27.1819H3.30345C2.98188 27.1817 2.6736 27.0538 2.44605 26.8265C2.21876 26.599 2.09088 26.2907 2.09065 25.9691V6.44C2.09088 6.11843 2.21876 5.81016 2.44605 5.58261C2.67358 5.35531 2.98185 5.22743 3.30345 5.2272H4.18157C4.1839 6.05819 4.51527 6.85464 5.10288 7.44225C5.69049 8.02985 6.48694 8.36123 7.31793 8.36356H15.6816C16.5126 8.36123 17.309 8.02986 17.8966 7.44225C18.4842 6.85464 18.8156 6.05819 18.8179 5.2272H19.6961C20.0176 5.22743 20.3259 5.35531 20.5534 5.58261C20.7807 5.81013 20.9086 6.11841 20.9088 6.44L20.909 25.9691Z" fill="#EF2B7B"/>
<path id="Vector_2" d="M17.7727 12.5449H13.5909C13.2172 12.5449 12.8721 12.7442 12.6854 13.0676C12.4987 13.3911 12.4987 13.7897 12.6854 14.1131C12.8721 14.4365 13.2173 14.6358 13.5909 14.6358H17.7727C18.1463 14.6358 18.4914 14.4365 18.6781 14.1131C18.8648 13.7897 18.8648 13.3911 18.6781 13.0676C18.4914 12.7442 18.1463 12.5449 17.7727 12.5449Z" fill="#EF2B7B"/>
<path id="Vector_3" d="M17.7727 20.9092H13.5909C13.2172 20.9092 12.8721 21.1085 12.6854 21.4319C12.4987 21.7553 12.4987 22.1539 12.6854 22.4774C12.8721 22.8008 13.2173 23.0001 13.5909 23.0001H17.7727C18.1463 23.0001 18.4914 22.8008 18.6781 22.4774C18.8648 22.1539 18.8648 21.7553 18.6781 21.4319C18.4914 21.1085 18.1463 20.9092 17.7727 20.9092Z" fill="#EF2B7B"/>
<path id="Vector_4" d="M8.66988 10.7616L6.27256 13.1587L5.96616 12.8523C5.70153 12.5912 5.31809 12.4901 4.959 12.587C4.60009 12.6841 4.3196 12.9646 4.22252 13.3235C4.12567 13.6826 4.22672 14.066 4.48808 14.3306L5.53354 15.3761C5.72956 15.5723 5.99536 15.6825 6.27258 15.6825C6.54981 15.6825 6.81585 15.5723 7.01187 15.3761L10.1482 12.2397C10.4094 11.9751 10.5104 11.5917 10.4136 11.2326C10.3165 10.8736 10.036 10.5932 9.67708 10.4961C9.31794 10.3992 8.93446 10.5003 8.66988 10.7616Z" fill="#EF2B7B"/>
<path id="Vector_5" d="M8.66988 19.1239L6.27256 21.521L5.96616 21.2146C5.70153 20.9535 5.31809 20.8524 4.959 20.9493C4.60009 21.0464 4.3196 21.3269 4.22252 21.6858C4.12567 22.0449 4.22672 22.4283 4.48808 22.6929L5.53354 23.7384C5.72956 23.9346 5.99536 24.0448 6.27258 24.0448C6.54981 24.0448 6.81585 23.9346 7.01187 23.7384L10.1482 20.602C10.4094 20.3374 10.5104 19.954 10.4136 19.5949C10.3165 19.236 10.036 18.9555 9.67708 18.8584C9.31794 18.7615 8.93446 18.8626 8.66988 19.1239Z" fill="#EF2B7B"/>
</g>
</svg>
