<svg width="38" height="26" viewBox="0 0 38 26" fill="none" xmlns="http://www.w3.org/2000/svg">
<g id="Group 1000003258">
<g id="Group">
<path id="Vector" d="M18.9976 16.0745C15.966 16.0745 13.4994 13.6079 13.4994 10.5763C13.4994 7.54469 15.966 5.07812 18.9976 5.07812C22.0292 5.07812 24.4957 7.54469 24.4957 10.5763C24.4957 13.6079 22.0292 16.0745 18.9976 16.0745ZM18.9976 6.76987C16.899 6.76987 15.1911 8.47769 15.1911 10.5763C15.1911 12.6749 16.899 14.3827 18.9976 14.3827C21.0962 14.3827 22.804 12.6749 22.804 10.5763C22.804 8.47769 21.0962 6.76987 18.9976 6.76987Z" fill="#EF2B7B"/>
</g>
<g id="Group_2">
<path id="Vector_2" d="M18.9974 25.377C15.4599 25.377 10.1157 25.377 10.1157 20.7247C10.1157 16.58 16.7211 15.2266 18.9974 15.2266C21.7795 15.2266 27.8791 16.6113 27.8791 20.7247C27.8791 25.377 22.5348 25.377 18.9974 25.377ZM18.9974 16.9183C17.0172 16.9183 11.8075 18.089 11.8075 20.7247C11.8075 23.2268 14.2284 23.6853 18.9974 23.6853C23.7664 23.6853 26.1873 23.2268 26.1873 20.7247C26.1873 18.0137 21.1129 16.9183 18.9974 16.9183Z" fill="#EF2B7B"/>
</g>
<g id="Group_3">
<path id="Vector_3" d="M8.81739 10.9963C5.80439 10.9963 3.33782 8.54585 3.32006 5.53285C3.31076 4.06442 3.87326 2.67973 4.90607 1.63507C5.93804 0.59042 7.31512 0.0093046 8.7844 0C11.8312 0 14.2978 2.45049 14.3164 5.46349C14.3342 8.4951 11.8837 10.9769 8.85207 10.9963H8.81739ZM8.81823 1.69175C7.77781 1.69767 6.82451 2.1003 6.10975 2.82352C5.39499 3.54674 4.8088 4.50512 4.81556 5.52186C4.82741 7.60778 6.73231 9.3046 8.42406 9.3046V10.1505L8.64568 9.3046C10.7434 9.29107 12.5401 7.5731 12.5265 5.47449C12.513 3.38857 10.9042 1.69175 8.81823 1.69175Z" fill="#EF2B7B"/>
</g>
<g id="Group_4">
<path id="Vector_4" d="M8.43851 20.3047C6.1648 20.3047 4.34871 20.1888 2.94287 19.7024C1.00244 19.0308 0.0127684 17.6858 8.0345e-05 15.7057C-0.00837838 14.4039 0.647172 12.5751 3.81327 11.2589C5.73848 10.4579 7.87854 10.1584 8.84706 10.1525C9.92217 10.1457 11.3805 10.3538 12.6467 10.7099L12.1891 12.3391C10.867 11.9677 9.61512 11.8459 8.85721 11.8451C8.05448 11.8502 6.15127 12.12 4.4629 12.8221C3.1941 13.3499 1.68337 14.277 1.69267 15.6964C1.70028 16.9491 2.23995 17.6698 3.49692 18.1046C4.77165 18.5461 6.57843 18.6265 8.9012 18.6121L8.91135 20.3038C8.75064 20.3038 8.59246 20.3047 8.43851 20.3047Z" fill="#EF2B7B"/>
</g>
<g id="Group_5">
<path id="Vector_5" d="M29.1835 10.9963H29.1488C27.6795 10.987 26.3024 10.4068 25.2705 9.36128C24.2376 8.31662 23.6751 6.93193 23.6844 5.46349C23.7022 2.45049 26.1696 0 29.1826 0C32.2481 0.0186092 34.6986 2.50125 34.6808 5.53285C34.6622 8.54585 32.1956 10.9963 29.1835 10.9963ZM29.2063 1.69175C27.0958 1.69175 25.388 3.38857 25.3762 5.47449C25.3694 6.49123 25.7594 7.4496 26.4741 8.17282C27.1889 8.89604 28.3359 9.29868 29.3526 9.3046L29.5709 10.1505V9.3046C31.2626 9.3046 33.1692 7.60778 33.1827 5.52186C33.1963 3.42325 31.3049 1.70528 29.2063 1.69175Z" fill="#EF2B7B"/>
</g>
<g id="Group_6">
<path id="Vector_6" d="M29.8677 20.3037C29.6012 20.3037 29.3416 20.3021 29.0903 20.3004L29.1005 18.6086C33.894 18.634 36.2938 18.1958 36.309 15.6929C36.3259 13.0572 31.123 11.8543 29.1428 11.8416C29.1292 11.8416 29.1166 11.8416 29.1039 11.8416C28.3553 11.8416 27.111 11.971 25.81 12.3356L25.3524 10.7065C26.6187 10.3512 28.077 10.1355 29.1521 10.149C31.4283 10.1634 38.0253 11.5574 37.9999 15.7022C37.9737 20.0254 33.3586 20.3037 29.8677 20.3037Z" fill="#EF2B7B"/>
</g>
</g>
</svg>
