<svg width="33" height="33" viewBox="0 0 33 33" fill="none" xmlns="http://www.w3.org/2000/svg">
<g id="Group 1000003257">
<path id="Vector" d="M32.4844 21.6544H28.3593C28.0745 21.6544 27.8436 21.8853 27.8436 22.17V22.9088H26.8124V16.1016C26.8124 15.8168 26.5815 15.5859 26.2967 15.5859H6.70258C6.41783 15.5859 6.18695 15.8168 6.18695 16.1016V24.0195L3.35289 22.3832C2.28546 21.7669 0.915542 22.134 0.299035 23.2015C-0.317279 24.269 0.0498539 25.6389 1.11735 26.2553L10.5725 31.7142C10.6509 31.7594 10.7398 31.7833 10.8303 31.7833H27.8436V32.4827C27.8436 32.7675 28.0745 32.9984 28.3593 32.9984H32.4844C32.7691 32.9984 33 32.7675 33 32.4827V22.17C33 21.8853 32.7691 21.6544 32.4844 21.6544ZM7.21822 16.6172H25.7811V22.6873C25.5223 22.5337 25.1719 22.343 24.7498 22.1539V19.5933C24.7498 19.3086 24.519 19.0777 24.2342 19.0777C23.7452 19.0777 23.3475 18.6679 23.3475 18.1642C23.3475 17.8794 23.1166 17.6485 22.8319 17.6485H14.2099C13.9251 17.6485 13.6942 17.8794 13.6942 18.1642C13.6942 18.4489 13.9251 18.6798 14.2099 18.6798H22.3847C22.5628 19.3362 23.0723 19.8545 23.7186 20.0376V21.7583C22.8041 21.4659 21.7127 21.2714 20.5588 21.3968C19.9948 21.458 19.503 21.5652 19.0749 21.7016C19.0145 20.3332 17.8827 19.2384 16.4997 19.2384C15.0781 19.2384 13.9215 20.395 13.9215 21.8166C13.9215 22.5512 14.2308 23.2145 14.7255 23.6846C14.6602 23.6936 14.5946 23.7029 14.5284 23.7129C12.8325 23.967 11.779 24.3729 11.3101 24.9532H10.6147C10.4366 24.2968 9.92705 23.7785 9.28083 23.5954V20.0376C9.92705 19.8545 10.4366 19.3362 10.6147 18.6798H12.1473C12.4321 18.6798 12.6629 18.4489 12.6629 18.1642C12.6629 17.8794 12.4321 17.6485 12.1473 17.6485H10.1675C9.8827 17.6485 9.65183 17.8794 9.65183 18.1642C9.65183 18.6679 9.25408 19.0777 8.76513 19.0777C8.48037 19.0777 8.24949 19.3086 8.24949 19.5933V24.0396C8.24949 24.3244 8.48037 24.5552 8.76513 24.5552C9.25408 24.5552 9.65183 24.965 9.65183 25.4687C9.65183 25.7535 9.8827 25.9844 10.1675 25.9844H10.7346C10.6614 26.1867 10.6128 26.3791 10.5816 26.5568L7.21822 24.6149V16.6172ZM16.6285 23.3804C16.5873 23.3697 16.5443 23.3635 16.4997 23.3635C15.6467 23.3635 14.9528 22.6695 14.9528 21.8166C14.9528 20.9636 15.6467 20.2696 16.4997 20.2696C17.3526 20.2696 18.0466 20.9636 18.0466 21.8166C18.0466 21.934 18.0328 22.0498 18.007 22.1627C17.2895 22.5685 16.864 23.0417 16.6285 23.3804ZM31.9687 31.9671H28.8749V29.594C28.8749 29.3093 28.644 29.0784 28.3593 29.0784C28.0745 29.0784 27.8436 29.3093 27.8436 29.594V30.752H10.9686L1.63305 25.3621C1.05799 25.0301 0.86024 24.2921 1.19218 23.7171C1.52425 23.1419 2.26225 22.9443 2.83725 23.2763L10.6321 27.7767C10.7208 27.9393 10.8927 28.0452 11.0846 28.0452L18.9044 28.0471H18.9045C19.1892 28.0471 19.4201 27.8163 19.4202 27.5316C19.4202 27.2468 19.1894 27.0159 18.9046 27.0158L11.5635 27.0141C11.5809 26.6765 11.6885 26.1576 12.1039 25.6111C12.3678 25.264 13.3278 24.9362 14.6721 24.734C15.8103 24.5628 16.8623 24.5291 16.8728 24.5287C17.0839 24.5222 17.2652 24.3998 17.3372 24.2016C17.379 24.1042 18.0234 22.7093 20.6702 22.4218C23.2858 22.1379 25.6479 23.8244 25.6708 23.8411C25.7591 23.9055 25.8654 23.9401 25.9745 23.9401H27.8437V27.5315C27.8437 27.8162 28.0746 28.0471 28.3593 28.0471C28.6441 28.0471 28.875 27.8162 28.875 27.5315V22.6857H31.9688V31.9671H31.9687Z" fill="#EF2B7B"/>
<path id="Vector_2" d="M18.5042 7.34961C17.684 7.34961 17.0168 8.01691 17.0168 8.83702C17.0168 9.65714 17.6841 10.3244 18.5042 10.3244C19.3243 10.3244 19.9916 9.65721 19.9916 8.83702C19.9916 8.01684 19.3243 7.34961 18.5042 7.34961ZM18.5042 9.29317C18.2528 9.29317 18.0481 9.08853 18.0481 8.83702C18.0481 8.58552 18.2528 8.38088 18.5042 8.38088C18.7556 8.38088 18.9603 8.58552 18.9603 8.83702C18.9603 9.08853 18.7557 9.29317 18.5042 9.29317Z" fill="#EF2B7B"/>
<path id="Vector_3" d="M14.4952 6.31467C15.3154 6.31467 15.9826 5.64738 15.9826 4.82726C15.9826 4.00714 15.3153 3.33984 14.4952 3.33984C13.6751 3.33984 13.0078 4.00708 13.0078 4.82726C13.0078 5.64744 13.6751 6.31467 14.4952 6.31467ZM14.4952 4.37111C14.7467 4.37111 14.9513 4.57576 14.9513 4.82726C14.9513 5.07876 14.7467 5.2834 14.4952 5.2834C14.2438 5.2834 14.0391 5.07876 14.0391 4.82726C14.0391 4.57576 14.2437 4.37111 14.4952 4.37111Z" fill="#EF2B7B"/>
<path id="Vector_4" d="M13.5234 10.3235C13.6555 10.3235 13.7874 10.2732 13.8881 10.1725L19.8406 4.22003C20.0419 4.01868 20.0419 3.69222 19.8406 3.49086C19.6391 3.2895 19.3127 3.2895 19.1113 3.49086L13.1588 9.44336C12.9575 9.64471 12.9575 9.97117 13.1588 10.1725C13.2595 10.2732 13.3914 10.3235 13.5234 10.3235Z" fill="#EF2B7B"/>
<path id="Vector_5" d="M8.7652 14.557H24.2343C24.519 14.557 24.7499 14.3261 24.7499 14.0413C24.7499 13.7566 24.519 13.5257 24.2343 13.5257H17.8729C18.7633 13.3433 19.5911 12.9872 20.3192 12.4944H22.1718C22.4566 12.4944 22.6874 12.2636 22.6874 11.9788C22.6874 11.694 22.4566 11.4632 22.1718 11.4632H21.5182C22.6433 10.2448 23.332 8.6175 23.332 6.83217C23.3319 3.06487 20.267 0 16.4997 0C12.7325 0 9.66757 3.06487 9.66757 6.83217C9.66757 8.6175 10.3562 10.2448 11.4814 11.4632H10.8277C10.543 11.4632 10.3121 11.694 10.3121 11.9788C10.3121 12.2636 10.543 12.4944 10.8277 12.4944H12.6803C13.4084 12.9872 14.2362 13.3433 15.1266 13.5257H8.76527C8.48051 13.5257 8.24963 13.7566 8.24963 14.0413C8.24963 14.3261 8.48051 14.557 8.76527 14.557H8.7652ZM16.4997 1.03127C19.6984 1.03127 22.3006 3.63356 22.3006 6.83217C22.3006 10.0308 19.6984 12.6331 16.4997 12.6331C13.3011 12.6331 10.6988 10.0308 10.6988 6.83217C10.6988 3.63356 13.3011 1.03127 16.4997 1.03127Z" fill="#EF2B7B"/>
</g>
</svg>
