<svg width="32" height="29" viewBox="0 0 32 29" fill="none" xmlns="http://www.w3.org/2000/svg">
<g id="Group">
<path id="Compound Path" d="M32 7.23342L27.4398 0H4.5602L0 7.07617V14.113H0.786241C1.53269 14.1447 2.26332 13.8918 2.83047 13.4054V28.3047H29.1695V13.5627C29.7458 14.0328 30.4701 14.2835 31.2138 14.2703H32V7.23342ZM5.42506 1.57248H26.5749L29.7985 6.68305L2.20147 6.5258L5.42506 1.57248ZM19.3415 26.7322H12.6585V20.0491H19.3415V26.7322ZM20.914 26.7322V18.4767H11.086V26.7322H4.40295V12.5405H4.59951C4.86067 12.5398 5.11889 12.5957 5.35641 12.7042C5.59393 12.8128 5.80511 12.9716 5.97543 13.1695C6.6149 13.799 7.47614 14.152 8.37346 14.1523H8.41278C9.3101 14.152 10.1713 13.799 10.8108 13.1695C10.9863 12.9807 11.1994 12.8307 11.4364 12.7291C11.6733 12.6276 11.9289 12.5767 12.1867 12.5799C12.4541 12.576 12.7191 12.6303 12.9634 12.7389C13.2078 12.8475 13.4256 13.0078 13.602 13.2088C13.9161 13.5241 14.29 13.7734 14.7018 13.9422C15.1136 14.111 15.555 14.1958 16 14.1916H16.0393C16.478 14.1927 16.9126 14.1064 17.3176 13.9376C17.7226 13.7689 18.0899 13.5211 18.398 13.2088C18.8698 12.855 19.145 12.6192 19.8133 12.6192C20.0749 12.6158 20.3339 12.6704 20.5719 12.7792C20.8098 12.8879 21.0206 13.0481 21.1892 13.2482C21.8453 13.8765 22.718 14.2284 23.6265 14.231C24.5239 14.2306 25.3851 13.8777 26.0246 13.2482C26.203 13.063 26.4166 12.9155 26.6529 12.8142C26.8892 12.7129 27.1434 12.66 27.4005 12.6585H27.5971V26.7322H20.914ZM29.8378 12.0688C29.1984 11.4393 28.3371 11.0863 27.4398 11.086C26.9873 11.0694 26.5364 11.1484 26.1164 11.3177C25.6965 11.4871 25.3169 11.743 25.0025 12.0688C24.8269 12.2576 24.6139 12.4077 24.3769 12.5092C24.1399 12.6108 23.8843 12.6616 23.6265 12.6585C22.9582 12.6585 22.683 12.4226 22.2113 12.0295C21.8972 11.7142 21.5232 11.4649 21.1114 11.2961C20.6996 11.1274 20.2583 11.0426 19.8133 11.0467C19.367 11.0332 18.9229 11.1138 18.5097 11.2831C18.0966 11.4524 17.7237 11.7067 17.4152 12.0295C16.9435 12.3833 16.6683 12.6192 16 12.6192C15.7384 12.6226 15.4793 12.5679 15.2414 12.4592C15.0035 12.3504 14.7926 12.1902 14.6241 11.9902C13.9846 11.3607 13.1234 11.0077 12.226 11.0074H12.1867C11.2894 11.0077 10.4282 11.3607 9.7887 11.9902C9.35627 12.344 9.04177 12.6192 8.37346 12.5799C8.1123 12.5806 7.85409 12.5247 7.61657 12.4162C7.37905 12.3076 7.16786 12.1488 6.99754 11.9509C6.35807 11.3214 5.49683 10.9684 4.59951 10.9681H4.5602C3.66452 10.9766 2.80623 11.3284 2.16216 11.9509L1.57248 12.3833V8.09828L30.4275 8.25553V12.5405C30.2197 12.3979 30.0226 12.2403 29.8378 12.0688Z" fill="#EF2B7B"/>
</g>
</svg>
