<svg width="55" height="55" viewBox="0 0 55 55" fill="none" xmlns="http://www.w3.org/2000/svg">
<g id="Group 1000003526">
<circle id="Ellipse 1304" cx="27.5" cy="27.5" r="27.5" fill="#FEEFF3"/>
<g id="layer1">
<path id="path453469" fill-rule="evenodd" clip-rule="evenodd" d="M38.3179 25.9229C37.6276 25.9229 36.9375 26.1821 36.4177 26.7019L33.264 29.8577C32.9147 29.3063 32.371 28.8765 31.6997 28.6966L24.2564 26.7019C23.6632 26.543 23.0498 26.5131 22.4549 26.6032C21.8601 26.6934 21.2842 26.9035 20.7647 27.231L16.1182 30.1622L15.7423 29.5092C15.2743 28.6984 14.1993 28.4112 13.3886 28.8793L9.85488 30.918C9.04416 31.3861 8.75692 32.461 9.22499 33.2718L14.4909 42.3906C14.959 43.2013 16.0318 43.4906 16.8425 43.0226L20.3763 40.9817C21.187 40.5136 21.4763 39.4387 21.0083 38.628L20.9389 38.5062L22.9525 37.1456L30.3601 38.6028C31.3753 38.8024 32.2827 38.5191 33.0057 37.7797C35.3949 35.3359 37.7872 32.9032 40.2138 30.5086C40.2159 30.5072 40.2181 30.5057 40.2202 30.5043C41.2599 29.4646 41.2599 27.7415 40.2202 26.7018C39.7004 26.182 39.0081 25.9229 38.3179 25.9229ZM38.3179 28.0541C38.4519 28.0541 38.586 28.1102 38.6979 28.2221C38.9216 28.4458 38.9216 28.7605 38.6979 28.9843C36.2581 31.392 33.8588 33.8339 31.4688 36.2785C31.4249 36.3234 30.837 36.5047 30.7759 36.4926L22.9295 34.9515C22.7902 34.9239 22.647 34.9242 22.5079 34.9523C22.3688 34.9804 22.2366 35.0358 22.119 35.1153L19.8619 36.6417L17.1953 32.0246L21.9111 29.0514C22.4441 28.7154 23.0915 28.6154 23.7 28.7785L31.1433 30.7732C31.4489 30.8551 31.6052 31.1269 31.5234 31.4325C31.4414 31.738 31.1696 31.8944 30.8641 31.8125L26.1923 30.5611C25.917 30.4873 25.6236 30.526 25.3767 30.6685C25.1298 30.8111 24.9497 31.0458 24.8758 31.3212C24.8021 31.5965 24.8407 31.8899 24.9833 32.1368C25.1258 32.3837 25.3606 32.5638 25.6359 32.6377L30.3077 33.8891C31.3567 34.1701 32.4435 33.7722 33.0939 32.9736C33.1978 32.9261 33.2935 32.8623 33.3774 32.7846L37.9378 28.2221C38.0497 28.1102 38.1838 28.0541 38.3179 28.0541ZM14.0941 30.9537L14.6148 31.8566C14.6332 32.0091 14.684 32.1558 14.7639 32.287C14.8328 32.3915 14.9195 32.4832 15.02 32.5579L18.9317 39.3335L16.1392 40.946L11.3015 32.5663L14.0941 30.9537Z" fill="#EF2B7B"/>
<path id="path453459" fill-rule="evenodd" clip-rule="evenodd" d="M29.2662 19.6006C28.9811 19.6006 28.7076 19.7138 28.506 19.9154C28.3044 20.117 28.1912 20.3905 28.1912 20.6756C28.1912 20.9607 28.3044 21.2341 28.506 21.4358C28.7076 21.6374 28.9811 21.7506 29.2662 21.7506H31.4162C31.7014 21.7506 31.9748 21.6374 32.1764 21.4358C32.378 21.2341 32.4913 20.9607 32.4913 20.6756C32.4913 20.3905 32.378 20.117 32.1764 19.9154C31.9748 19.7138 31.7014 19.6006 31.4162 19.6006H29.2662Z" fill="#EF2B7B"/>
<path id="path453437" fill-rule="evenodd" clip-rule="evenodd" d="M29.2662 15.3008C28.9811 15.3008 28.7076 15.414 28.506 15.6156C28.3044 15.8172 28.1912 16.0907 28.1912 16.3758C28.1912 16.6609 28.3044 16.9343 28.506 17.1359C28.7076 17.3376 28.9811 17.4508 29.2662 17.4508H31.4162C31.7014 17.4508 31.9748 17.3376 32.1764 17.1359C32.378 16.9343 32.4913 16.6609 32.4913 16.3758C32.4913 16.0907 32.378 15.8172 32.1764 15.6156C31.9748 15.414 31.7014 15.3008 31.4162 15.3008H29.2662Z" fill="#EF2B7B"/>
<path id="rect18334" fill-rule="evenodd" clip-rule="evenodd" d="M30.3411 11C26.1978 11 22.8159 14.3819 22.8159 18.5252C22.8159 22.6685 26.1978 26.0504 30.3411 26.0504C34.4844 26.0504 37.8663 22.6685 37.8663 18.5252C37.8663 14.3819 34.4844 11 30.3411 11ZM30.3411 13.1501C33.3224 13.1501 35.7162 15.5439 35.7162 18.5252C35.7162 21.5065 33.3224 23.9003 30.3411 23.9003C27.3598 23.9003 24.966 21.5065 24.966 18.5252C24.966 15.5439 27.3598 13.1501 30.3411 13.1501Z" fill="#EF2B7B"/>
</g>
</g>
</svg>
