<svg width="71" height="71" viewBox="0 0 71 71" fill="none" xmlns="http://www.w3.org/2000/svg">
<g id="solar:folder-with-files-bold">
<path id="Vector" fill-rule="evenodd" clip-rule="evenodd" d="M6.12383 15.5552C5.91675 16.6439 5.91675 17.9515 5.91675 20.5607V41.417C5.91675 52.5729 5.91675 58.1523 9.38391 61.6165C12.8481 65.0837 18.4275 65.0837 29.5834 65.0837H41.4167C52.5726 65.0837 58.152 65.0837 61.6162 61.6165C65.0834 58.1523 65.0834 52.5729 65.0834 41.417V34.9027C65.0834 27.1164 65.0834 23.2203 62.8055 20.6909C62.5966 20.4574 62.3754 20.2352 62.1428 20.0253C59.6135 17.7503 55.7173 17.7503 47.931 17.7503H46.8246C43.4136 17.7503 41.7067 17.7503 40.1151 17.2977C39.2417 17.048 38.3999 16.6986 37.6064 16.2564C36.1628 15.4547 34.9557 14.2447 32.5417 11.8337L30.9147 10.2066C30.1041 9.39599 29.7017 8.99366 29.2757 8.63866C27.4436 7.11997 25.196 6.18899 22.8266 5.96728C22.2763 5.91699 21.7024 5.91699 20.5605 5.91699C17.9483 5.91699 16.6437 5.91699 15.555 6.12408C13.2174 6.56553 11.0672 7.70127 9.38482 9.38313C7.70244 11.065 6.56602 13.2178 6.12383 15.5552ZM48.1677 8.87533C49.2504 8.87533 49.7948 8.87533 50.2474 8.93449C53.259 9.34866 55.6552 11.7242 56.2055 14.792C55.755 14.69 55.2999 14.61 54.8417 14.5524C52.9483 14.3039 50.558 14.3039 47.5938 14.3039H46.6057C43.8189 14.3039 42.7598 14.2891 41.7984 14.0051C41.2387 13.8391 40.7005 13.6077 40.195 13.3158C39.3193 12.8129 38.562 12.0496 36.5917 10.0084L35.5001 8.87533H48.1736H48.1677ZM38.4584 27.3649C37.87 27.3649 37.3056 27.5987 36.8895 28.0148C36.4734 28.4309 36.2397 28.9952 36.2397 29.5837C36.2397 30.1721 36.4734 30.7365 36.8895 31.1526C37.3056 31.5686 37.87 31.8024 38.4584 31.8024H53.2501C53.8385 31.8024 54.4029 31.5686 54.819 31.1526C55.2351 30.7365 55.4688 30.1721 55.4688 29.5837C55.4688 28.9952 55.2351 28.4309 54.819 28.0148C54.4029 27.5987 53.8385 27.3649 53.2501 27.3649H38.4584Z" fill="#4298EF"/>
</g>
</svg>
