<svg width="29" height="29" viewBox="0 0 29 29" fill="none" xmlns="http://www.w3.org/2000/svg">
<g id="Group">
<path id="Vector" d="M26.129 15.1091H9.45403C9.10603 15.1091 8.84503 14.8481 8.84503 14.5001C8.84503 14.1521 9.10603 13.8911 9.45403 13.8911H26.129C26.477 13.8911 26.738 14.1521 26.738 14.5001C26.738 14.8481 26.477 15.1091 26.129 15.1091Z" fill="#EF2B7B"/>
<path id="Vector_2" d="M5.51002 15.1091H2.87102C2.52302 15.1091 2.26202 14.8481 2.26202 14.5001C2.26202 14.1521 2.52302 13.8911 2.87102 13.8911H5.51002C5.85802 13.8911 6.11902 14.1521 6.11902 14.5001C6.11902 14.8481 5.85802 15.1091 5.51002 15.1091Z" fill="#EF2B7B"/>
<path id="Vector_3" d="M7.48199 17.0811C6.06099 17.0811 4.92999 15.9211 4.92999 14.5291C4.92999 13.1371 6.08999 11.9771 7.48199 11.9771C8.87399 11.9771 10.034 13.1371 10.034 14.5291C10.034 15.9211 8.90299 17.0811 7.48199 17.0811ZM7.48199 13.1371C6.72799 13.1371 6.11899 13.7461 6.11899 14.5001C6.11899 15.2541 6.72799 15.8631 7.48199 15.8631C8.23599 15.8631 8.84499 15.2541 8.84499 14.5001C8.84499 13.7461 8.23599 13.1371 7.48199 13.1371Z" fill="#EF2B7B"/>
<path id="Vector_4" d="M19.053 8.58372H2.87102C2.52302 8.58372 2.26202 8.32272 2.26202 7.97472C2.26202 7.62672 2.52302 7.36572 2.87102 7.36572H19.024C19.372 7.36572 19.633 7.62672 19.633 7.97472C19.633 8.32272 19.372 8.58372 19.053 8.58372Z" fill="#EF2B7B"/>
<path id="Vector_5" d="M26.129 8.58372H23.258C22.91 8.58372 22.649 8.32272 22.649 7.97472C22.649 7.62672 22.91 7.36572 23.258 7.36572H26.129C26.477 7.36572 26.738 7.62672 26.738 7.97472C26.738 8.32272 26.477 8.58372 26.129 8.58372Z" fill="#EF2B7B"/>
<path id="Vector_6" d="M21.083 10.5557C19.662 10.5557 18.531 9.39566 18.531 8.00366C18.531 6.61166 19.691 5.45166 21.083 5.45166C22.475 5.45166 23.635 6.61166 23.635 8.00366C23.635 9.39566 22.475 10.5557 21.083 10.5557ZM21.083 6.61166C20.329 6.61166 19.72 7.22066 19.72 7.97466C19.72 8.72866 20.329 9.33766 21.083 9.33766C21.837 9.33766 22.446 8.72866 22.446 7.97466C22.446 7.22066 21.808 6.61166 21.083 6.61166Z" fill="#EF2B7B"/>
<path id="Vector_7" d="M17.2841 23.5757C15.8631 23.5757 14.7321 22.4157 14.7321 21.0237C14.7321 19.6317 15.8921 18.4717 17.2841 18.4717C18.6761 18.4717 19.8361 19.6317 19.8361 21.0237C19.8361 22.4157 18.6761 23.5757 17.2841 23.5757ZM17.2841 19.6607C16.5301 19.6607 15.9211 20.2697 15.9211 21.0237C15.9211 21.7777 16.5301 22.3867 17.2841 22.3867C18.0381 22.3867 18.6471 21.7777 18.6471 21.0237C18.6471 20.2697 18.0381 19.6607 17.2841 19.6607Z" fill="#EF2B7B"/>
<path id="Vector_8" d="M15.109 21.6345H2.90002C2.55202 21.6345 2.29102 21.3735 2.29102 21.0255C2.29102 20.6775 2.55202 20.4165 2.90002 20.4165H15.109C15.457 20.4165 15.718 20.6775 15.718 21.0255C15.718 21.3735 15.457 21.6345 15.109 21.6345Z" fill="#EF2B7B"/>
<path id="Vector_9" d="M26.1289 21.6345H19.3429C18.9949 21.6345 18.7339 21.3735 18.7339 21.0255C18.7339 20.6775 18.9949 20.4165 19.3429 20.4165H26.1289C26.4769 20.4165 26.7379 20.6775 26.7379 21.0255C26.7379 21.3735 26.4769 21.6345 26.1289 21.6345Z" fill="#EF2B7B"/>
</g>
</svg>
