<svg width="113" height="113" viewBox="0 0 113 113" fill="none" xmlns="http://www.w3.org/2000/svg">
<g id="Group 1000003265">
<path id="Vector" d="M56.5 0C45.3254 0 34.4017 3.31367 25.1103 9.52197C15.8189 15.7303 8.57718 24.5544 4.30083 34.8784C0.0244808 45.2024 -1.09441 56.5627 1.08566 67.5226C3.26572 78.4825 8.64682 88.5498 16.5485 96.4515C24.4502 104.353 34.5175 109.734 45.4774 111.914C56.4373 114.094 67.7976 112.976 78.1216 108.699C88.4456 104.423 97.2697 97.1811 103.478 87.8897C109.686 78.5983 113 67.6746 113 56.5C113 41.5153 107.047 27.1443 96.4515 16.5485C85.8557 5.95266 71.4847 0 56.5 0ZM56.5 105.09C46.8492 105.09 37.4151 102.228 29.3907 96.8665C21.3663 91.5048 15.1121 83.8839 11.4189 74.9677C7.72568 66.0515 6.75938 56.2404 8.64216 46.775C10.5249 37.3096 15.1723 28.6151 21.9964 21.7909C28.8206 14.9668 37.5151 10.3195 46.9805 8.43668C56.4459 6.5539 66.257 7.52021 75.1732 11.2134C84.0894 14.9066 91.7102 21.1609 97.0719 29.1852C102.434 37.2096 105.295 46.6437 105.295 56.2945C105.295 69.2359 100.155 81.6472 91.0036 90.7981C81.8527 99.949 69.4414 105.09 56.5 105.09Z" fill="#EF2B7B"/>
<path id="Vector_2" d="M75.5302 53.1863C79.9838 53.1863 83.5942 49.5759 83.5942 45.1222C83.5942 40.6685 79.9838 37.0581 75.5302 37.0581C71.0765 37.0581 67.4661 40.6685 67.4661 45.1222C67.4661 49.5759 71.0765 53.1863 75.5302 53.1863Z" fill="#EF2B7B"/>
<path id="Vector_3" d="M37.1873 53.1863C38.7877 53.1861 40.3518 52.7097 41.6805 51.8178C43.0093 50.9259 44.0427 49.6588 44.649 48.1778C45.2554 46.6968 45.4075 45.0688 45.0858 43.5012C44.7641 41.9335 43.9832 40.497 42.8425 39.3745C41.7018 38.252 40.253 37.4942 38.6803 37.1977C37.1077 36.9012 35.4824 37.0794 34.0113 37.7094C32.5402 38.3395 31.2899 39.3931 30.4194 40.736C29.5489 42.0789 29.0977 43.6505 29.1232 45.2506C29.1635 47.3649 30.03 49.3794 31.5373 50.8626C33.0445 52.3459 35.0727 53.18 37.1873 53.1863Z" fill="#EF2B7B"/>
<path id="Vector_4" d="M56.4999 67.4652C46.8632 67.4669 37.6024 71.2044 30.664 77.892C30.2821 78.2384 29.9737 78.6579 29.7569 79.1257C29.5402 79.5934 29.4195 80.1 29.4021 80.6152C29.3847 81.1305 29.4709 81.644 29.6556 82.1253C29.8403 82.6067 30.1197 83.0461 30.4773 83.4174C30.8349 83.7888 31.2634 84.0846 31.7375 84.2873C32.2115 84.49 32.7214 84.5955 33.2369 84.5976C33.7525 84.5996 34.2632 84.4981 34.7388 84.2992C35.2144 84.1002 35.6453 83.8078 36.0058 83.4393C41.5148 78.1046 48.8827 75.1219 56.5513 75.1219C64.2198 75.1219 71.5878 78.1046 77.0967 83.4393C77.7854 84.1109 78.7032 84.4963 79.6649 84.5179C80.1863 84.5153 80.7021 84.4095 81.1825 84.2068C81.6629 84.004 82.0985 83.7083 82.4642 83.3366C83.1856 82.6143 83.5908 81.6351 83.5908 80.6143C83.5908 79.5934 83.1856 78.6143 82.4642 77.892C75.4999 71.1642 66.1831 67.4228 56.4999 67.4652Z" fill="#EF2B7B"/>
</g>
</svg>
