<svg width="14" height="13" viewBox="0 0 14 13" fill="none" xmlns="http://www.w3.org/2000/svg">
<g id="Group">
<g id="Group_2">
<path id="Vector" d="M0 5.18532C0 4.80639 0.30719 4.4992 0.686127 4.4992H4.09052C4.46946 4.4992 4.77665 4.80639 4.77665 5.18532V8.63248C4.77665 8.98547 4.49049 9.27162 4.1375 9.27162H3.95577V12.0991C3.95577 12.478 3.64858 12.7852 3.26964 12.7852H1.51979C1.14085 12.7852 0.83366 12.478 0.83366 12.0991V9.27162H0.645539C0.289018 9.27162 0 8.98261 0 8.62609V5.18532ZM0.457418 5.18532V8.62609C0.457418 8.72998 0.541643 8.81421 0.645539 8.81421H0.83366C1.08628 8.81421 1.29108 9.019 1.29108 9.27162V12.0991C1.29108 12.2254 1.39347 12.3278 1.51979 12.3278H3.26964C3.39595 12.3278 3.49835 12.2254 3.49835 12.0991V9.27162C3.49835 9.019 3.70314 8.81421 3.95577 8.81421H4.1375C4.23787 8.81421 4.31923 8.73284 4.31923 8.63248V5.18532C4.31923 5.05901 4.21683 4.95661 4.09052 4.95661H0.686127C0.559815 4.95661 0.457418 5.05901 0.457418 5.18532ZM9.22335 5.18532C9.22335 4.80639 9.53054 4.4992 9.90948 4.4992H13.3139C13.6928 4.4992 14 4.80639 14 5.18532V8.63248C14 8.98547 13.7138 9.27162 13.3609 9.27162H13.1791V12.0991C13.1791 12.478 12.8719 12.7852 12.493 12.7852H10.7431C10.3642 12.7852 10.057 12.478 10.057 12.0991V9.27162H9.86889C9.51237 9.27162 9.22335 8.98261 9.22335 8.62609V5.18532ZM9.68077 5.18532V8.62609C9.68077 8.72998 9.765 8.81421 9.86889 8.81421H10.057C10.3096 8.81421 10.5144 9.019 10.5144 9.27162V12.0991C10.5144 12.2254 10.6168 12.3278 10.7431 12.3278H12.493C12.6193 12.3278 12.7217 12.2254 12.7217 12.0991V9.27162C12.7217 9.019 12.9265 8.81421 13.1791 8.81421H13.3609C13.4612 8.81421 13.5426 8.73284 13.5426 8.63248V5.18532C13.5426 5.05901 13.4402 4.95661 13.3139 4.95661H9.90948C9.78317 4.95661 9.68077 5.05901 9.68077 5.18532ZM4.31923 4.33048C4.31923 3.95154 4.62642 3.64435 5.00536 3.64435H8.94965C9.32859 3.64435 9.63578 3.95154 9.63578 4.33048V8.04992C9.63578 8.43125 9.32665 8.74038 8.94533 8.74038H8.71229V12.0541C8.71229 12.433 8.4051 12.7402 8.02616 12.7402H5.94322C5.56429 12.7402 5.2571 12.433 5.2571 12.0541V8.74038H5.00536C4.62642 8.74038 4.31923 8.43319 4.31923 8.05425V4.33048ZM4.77665 4.33048V8.05425C4.77665 8.18056 4.87904 8.28296 5.00536 8.28296H5.2571C5.50972 8.28296 5.71451 8.48775 5.71451 8.74038V12.0541C5.71451 12.1804 5.81691 12.2828 5.94322 12.2828H8.02616C8.15248 12.2828 8.25487 12.1804 8.25487 12.0541V8.74038C8.25487 8.48775 8.45967 8.28296 8.71229 8.28296H8.94533C9.07403 8.28296 9.17836 8.17863 9.17836 8.04992V4.33048C9.17836 4.20416 9.07596 4.10177 8.94965 4.10177H5.00536C4.87904 4.10177 4.77665 4.20416 4.77665 4.33048ZM2.36583 4.05678C1.43194 4.05678 0.674879 3.29971 0.674879 2.36583C0.674879 1.43194 1.43194 0.674879 2.36583 0.674879C3.29971 0.674879 4.05678 1.43194 4.05678 2.36583C4.05678 3.29971 3.29971 4.05678 2.36583 4.05678ZM2.36583 3.59936C3.04709 3.59936 3.59936 3.04709 3.59936 2.36583C3.59936 1.68457 3.04709 1.1323 2.36583 1.1323C1.68457 1.1323 1.1323 1.68457 1.1323 2.36583C1.1323 3.04709 1.68457 3.59936 2.36583 3.59936ZM7.08998 3.3819C6.1561 3.3819 5.39904 2.62483 5.39904 1.69095C5.39904 0.757063 6.1561 0 7.08998 0C8.02387 0 8.78093 0.757063 8.78093 1.69095C8.78093 2.62483 8.02387 3.3819 7.08998 3.3819ZM7.08998 2.92448C7.77124 2.92448 8.32351 2.37221 8.32351 1.69095C8.32351 1.00969 7.77124 0.457418 7.08998 0.457418C6.40872 0.457418 5.85645 1.00969 5.85645 1.69095C5.85645 2.37221 6.40872 2.92448 7.08998 2.92448ZM11.5892 4.05678C10.6553 4.05678 9.89823 3.29971 9.89823 2.36583C9.89823 1.43194 10.6553 0.674879 11.5892 0.674879C12.5231 0.674879 13.2801 1.43194 13.2801 2.36583C13.2801 3.29971 12.5231 4.05678 11.5892 4.05678ZM11.5892 3.59936C12.2704 3.59936 12.8227 3.04709 12.8227 2.36583C12.8227 1.68457 12.2704 1.1323 11.5892 1.1323C10.9079 1.1323 10.3557 1.68457 10.3557 2.36583C10.3557 3.04709 10.9079 3.59936 11.5892 3.59936Z" fill="#707070"/>
</g>
</g>
</svg>
