<svg width="15" height="15" viewBox="0 0 15 15" fill="none" xmlns="http://www.w3.org/2000/svg">
<g id="Group">
<path id="Vector" d="M12.9649 1.00041H10.4961V0.30426C10.4961 0.136262 10.3598 0 10.1918 0C10.0238 0 9.88758 0.136262 9.88758 0.30426V1.00041H4.41138V0.30426C4.41138 0.136262 4.27511 0 4.10711 0C3.93912 0 3.80286 0.136262 3.80286 0.30426V1.00041H1.33388C0.598257 1.00041 0 1.59883 0 2.33429V4.08343C0 4.08359 0 4.08359 0 4.08375V13.2463C0 14.2296 0.801781 15 1.8254 15H12.4736C13.497 15 14.299 14.2298 14.299 13.2464V2.33429C14.299 1.59883 13.7005 1.00041 12.9649 1.00041ZM12.9649 1.60893C13.365 1.60893 13.6904 1.93435 13.6904 2.33445V3.77933H0.60852V2.33445C0.60852 1.93435 0.933938 1.60893 1.33388 1.60893H12.9649ZM12.4736 14.3913H1.8254C1.13162 14.3913 0.60852 13.899 0.60852 13.2461V4.38769H13.6904V13.2463C13.6904 13.899 13.1673 14.3913 12.4736 14.3913Z" fill="#EF2B7B"/>
<path id="Vector_2" d="M7.14831 6.11088C6.68553 5.73872 6.11569 5.53662 5.51586 5.53662C4.82681 5.53662 4.17487 5.80914 3.67988 6.30382C2.66462 7.31923 2.66462 8.97159 3.68003 9.98715L6.93311 13.2401C6.99247 13.2994 7.07032 13.3291 7.14816 13.3291C7.226 13.3291 7.304 13.2994 7.36321 13.2401L10.6161 9.98715C11.111 9.49247 11.3833 8.83627 11.3833 8.1398C11.3833 7.45076 11.1108 6.7985 10.6161 6.30382C9.66955 5.35725 8.16988 5.29283 7.14831 6.11088ZM10.1859 9.55689L7.148 12.5948L4.11014 9.55689C3.33188 8.77864 3.33188 7.51218 4.10998 6.73392C4.49003 6.35403 4.98913 6.14498 5.5157 6.14498C6.04954 6.14498 6.5529 6.35419 6.93279 6.73392C7.05168 6.85282 7.24416 6.85282 7.36305 6.73392C8.14146 5.95583 9.40776 5.95583 10.1859 6.73392C10.5658 7.11382 10.7748 7.61307 10.7748 8.13965C10.775 8.6738 10.5658 9.177 10.1859 9.55689Z" fill="#EF2B7B"/>
</g>
</svg>
