<svg width="23" height="22" viewBox="0 0 23 22" fill="none" xmlns="http://www.w3.org/2000/svg">
<g id="Group 1000003267">
<path id="Vector" d="M12.3243 0C8.00959 0 4.22911 2.53949 2.55255 6.36106L1.54169 4.52835C1.31979 4.13387 0.818463 3.98594 0.423979 4.20784C0.0294944 4.42973 -0.118437 4.93106 0.10346 5.32554L2.03479 8.81015C2.03479 8.81015 2.03479 8.81837 2.03479 8.82659L2.0841 8.92521C2.23203 9.19642 2.51146 9.35257 2.80732 9.35257C2.93882 9.35257 3.07853 9.3197 3.20181 9.25395L6.79326 7.26509C7.18775 7.04319 7.33568 6.54187 7.11378 6.14738C6.89188 5.7529 6.39056 5.60497 5.99607 5.82687L4.13049 6.86239C5.58515 3.73117 8.73281 1.66012 12.316 1.66012C17.3046 1.66012 21.3563 5.71181 21.3563 10.7004C21.3563 15.689 17.3046 19.7407 12.316 19.7407C8.19039 19.7407 4.59072 16.9546 3.56342 12.9605C3.44836 12.5249 3.00457 12.2537 2.56077 12.3687C2.11698 12.4838 1.85399 12.9276 1.96904 13.3714C3.17715 18.0888 7.4343 21.3843 12.316 21.3843C18.2087 21.3843 23 16.593 23 10.7004C23 4.80778 18.2169 0 12.3243 0Z" fill="#EF2B7B"/>
<path id="Vector_2" d="M12.3243 4.1084C11.8723 4.1084 11.5024 4.47823 11.5024 4.93024V10.6831C11.5024 10.905 11.5928 11.1105 11.7408 11.2666L14.2063 13.7322C14.3707 13.8965 14.5761 13.9705 14.7898 13.9705C15.0035 13.9705 15.209 13.8883 15.3733 13.7322C15.6938 13.4117 15.6938 12.8939 15.3733 12.5734L13.1461 10.3462V4.93024C13.1461 4.47823 12.7763 4.1084 12.3243 4.1084Z" fill="#EF2B7B"/>
</g>
</svg>
