<svg width="74" height="51" viewBox="0 0 74 51" fill="none" xmlns="http://www.w3.org/2000/svg">
<g id="Group 1000003606">
<g id="Clip path group">
<mask id="mask0_945_1323" style="mask-type:luminance" maskUnits="userSpaceOnUse" x="0" y="3" width="59" height="48">
<g id="2ef6046b4d">
<path id="Vector" d="M0 3H58.1727V51H0V3Z" fill="white"/>
</g>
</mask>
<g mask="url(#mask0_945_1323)">
<g id="Group">
<path id="Vector_2" d="M0.569081 50.579L0.119019 49.82C0.736751 49.456 1.35228 49.0633 1.94574 48.6463L2.45537 49.3678C1.83984 49.7958 1.20226 50.2039 0.569081 50.579ZM4.23135 48.0065L3.66657 47.3293C4.22032 46.8704 4.76525 46.385 5.2837 45.882L5.89923 46.5152C5.36312 47.0336 4.80275 47.5344 4.23135 48.0065ZM7.44576 44.898L6.7817 44.3134C7.26044 43.7751 7.72374 43.2103 8.15836 42.6345L8.86214 43.1662C8.41428 43.7663 7.93774 44.3421 7.44576 44.898ZM10.1439 41.3328L9.40044 40.8563C9.79315 40.2496 10.166 39.6252 10.4991 38.9877L11.2779 39.4046C10.9293 40.0577 10.5477 40.7085 10.1439 41.3328ZM12.2641 37.3948L11.4544 37.0396C11.7456 36.3777 12.0126 35.7026 12.2464 35.0253L13.076 35.3122C12.8399 36.0115 12.5641 36.7131 12.2641 37.3948ZM9.66739 34.4186C8.88199 34.412 8.11424 34.2885 7.36634 34.0502L7.6355 33.2097C8.29956 33.4237 8.97906 33.534 9.67622 33.5428L9.66739 34.4186ZM11.9684 34.1208L11.7412 33.2692C12.1317 33.1633 12.5178 33.0354 12.8928 32.8787C13.0583 32.2014 13.2061 31.5153 13.3186 30.8336L14.1901 30.977C14.093 31.5683 13.9739 32.1639 13.8327 32.753L14.1084 33.2847C13.4245 33.6421 12.7097 33.92 11.964 34.1208H11.9684ZM5.2815 32.9846C4.78069 32.6096 4.34828 32.1661 3.98426 31.6587C3.88498 31.5175 3.78791 31.3697 3.69966 31.2219L4.463 30.774C4.53801 30.902 4.61964 31.0277 4.70347 31.1469C5.01455 31.5793 5.38519 31.9543 5.81319 32.272L5.2815 32.9846ZM16.0322 32.058L15.4917 31.3587C15.6417 31.2439 15.7918 31.1248 15.9374 31.0035C16.3389 30.6659 16.7206 30.3085 17.0868 29.9335L17.7222 30.549C17.3273 30.9505 16.9169 31.3322 16.5044 31.6786C16.3455 31.8065 16.1867 31.9345 16.0278 32.058H16.0322ZM2.88999 29.0223C2.79733 28.5061 2.751 27.9854 2.751 27.4603C2.751 27.2177 2.76203 26.9639 2.78189 26.7168L3.65995 26.783C3.6445 27.0103 3.63568 27.2397 3.63568 27.4603C3.63347 27.9325 3.67539 28.398 3.75923 28.8635L2.88999 29.0223ZM19.1915 28.8436L18.4943 28.3053C18.9135 27.7648 19.3239 27.1868 19.7475 26.5359L20.4887 27.0169C20.0497 27.6986 19.6283 28.2899 19.1915 28.8458V28.8436ZM14.457 28.751L13.5746 28.6848C13.6032 28.3009 13.6231 27.9126 13.6341 27.5265C13.6341 27.3324 13.6341 27.1426 13.6341 26.9617C13.6341 26.8161 13.6341 26.6683 13.6341 26.5227L14.5166 26.5006C14.5166 26.6529 14.5166 26.8073 14.5166 26.9617C14.5166 27.1515 14.5166 27.3478 14.51 27.5486C14.5056 27.9545 14.4835 28.3605 14.457 28.7554V28.751ZM21.6514 25.1196L20.8881 24.6761C21.2719 24.0143 21.6492 23.3414 21.9669 22.7678L22.739 23.1936C22.4192 23.776 22.0397 24.4577 21.6514 25.124V25.1196ZM4.03941 24.7004L3.19444 24.4687C3.40624 23.7253 3.69966 23.0171 4.07912 22.342L4.84908 22.7744C4.50492 23.3855 4.23356 24.0275 4.03941 24.7004ZM13.4113 24.4224C13.2833 23.7672 13.0693 23.1384 12.7671 22.5405L12.7296 22.4677L13.5106 22.0552L13.5547 22.1434C13.89 22.8097 14.1305 23.5113 14.2761 24.2437L13.4113 24.4224ZM23.8046 21.2764L23.0325 20.8462C23.3082 20.3586 23.5509 19.9306 23.7782 19.5445C23.8973 19.3372 24.0208 19.132 24.1444 18.9268L24.9011 19.3813C24.7798 19.5842 24.6584 19.785 24.5415 19.988C24.3165 20.3652 24.076 20.7866 23.8046 21.2698V21.2764ZM6.09117 21.133L5.47785 20.4998C6.05587 19.9262 6.72655 19.5026 7.49651 19.2335L7.77669 20.063C7.13469 20.2902 6.57211 20.6454 6.09117 21.1264V21.133ZM11.4632 20.8947C10.9514 20.4513 10.3668 20.1446 9.70931 19.9769L9.91228 19.121C10.7065 19.3195 11.4147 19.6879 12.0346 20.2218L11.4632 20.8947ZM26.0704 17.5391L25.3357 17.0515C25.7505 16.4272 26.1829 15.8139 26.6153 15.2292L27.3257 15.7543C26.9021 16.3213 26.4807 16.9214 26.0726 17.5325L26.0704 17.5391ZM28.6737 14.0401L27.992 13.4775C28.4707 12.8995 28.9671 12.3369 29.4657 11.8052L30.1121 12.4053C29.6268 12.9194 29.1414 13.4687 28.6737 14.0335V14.0401ZM31.6498 10.8654L31.0431 10.2256C31.5903 9.70936 32.1573 9.21517 32.7265 8.75187L33.2846 9.43579C32.7331 9.87923 32.1837 10.358 31.6498 10.8588V10.8654ZM35.0187 8.12973L34.5201 7.4061C35.0187 7.05532 35.5482 6.71997 36.0688 6.41332C36.1835 6.34272 36.2983 6.27653 36.413 6.21035L36.8542 6.97369C36.7439 7.03767 36.6336 7.10165 36.5233 7.16783C36.0159 7.45905 35.5107 7.78336 35.0209 8.12311L35.0187 8.12973ZM57.4887 6.30962C56.871 5.94781 56.2312 5.62571 55.5715 5.34552L55.9179 4.53364C56.6128 4.82927 57.2857 5.16903 57.9366 5.5507L57.4887 6.30962ZM38.7736 5.9787L38.4074 5.17123C39.0869 4.86016 39.7863 4.58218 40.4944 4.34171L40.7834 5.17123C40.1039 5.40509 39.4288 5.67645 38.7736 5.97428V5.9787ZM53.5484 4.63513C52.8579 4.43657 52.1563 4.27993 51.4459 4.16301L51.5894 3.29377C52.3328 3.41731 53.0675 3.58278 53.7933 3.79016L53.5484 4.63513ZM42.8639 4.56233L42.6543 3.70412C43.3801 3.52542 44.1236 3.37319 44.8583 3.27171L44.9884 4.14315C44.2758 4.24243 43.561 4.38362 42.8595 4.55571L42.8639 4.56233ZM49.2971 3.92915C48.5779 3.89164 47.8587 3.89164 47.1395 3.92915L47.0931 3.04447C47.8499 3.00696 48.6044 3.01799 49.3435 3.04667L49.2971 3.92915Z" fill="#FF0055"/>
</g>
</g>
</g>
<path id="Polygon 1" d="M68.7118 12.4445C69.0099 13.1543 68.428 13.9206 67.6643 13.8239L59.0726 12.7363C58.3089 12.6396 57.9362 11.7524 58.4018 11.1394L63.6395 4.24258C64.1051 3.62953 65.0597 3.75038 65.3579 4.46011L68.7118 12.4445Z" fill="#EF2B7B"/>
</g>
</svg>
