<svg width="16" height="17" viewBox="0 0 16 17" fill="none" xmlns="http://www.w3.org/2000/svg">
<path id="Vector" d="M15.4138 6.149L9.22362 0.479186C8.52617 -0.159729 7.47415 -0.159729 6.77645 0.479186L0.586231 6.149C0.0334836 6.65534 -0.14746 7.43279 0.125315 8.12962C0.398067 8.82654 1.05927 9.27684 1.80994 9.27684H1.93951V15.1981C1.93951 16.1916 2.79075 16.9997 3.83691 16.9997H6.45188C6.76462 16.9997 7.01813 16.7471 7.01813 16.4355V11.3081C7.01813 11.1551 7.14769 11.026 7.30125 11.026H8.69913C8.85268 11.026 8.98225 11.1551 8.98225 11.3081V16.4358C8.98225 16.7474 9.23577 17 9.5485 17H12.1635C13.2096 17 14.0609 16.1918 14.0609 15.1984L14.0607 9.27684H14.1903C14.941 9.27684 15.6023 8.82641 15.8749 8.12962C16.1473 7.4327 15.9664 6.65521 15.4139 6.14891L15.4138 6.149ZM14.8195 7.71976C14.7145 7.98817 14.4791 8.14852 14.19 8.14852H13.4942C13.1814 8.14852 12.9279 8.40112 12.9279 8.71273V15.1984C12.9279 15.5696 12.5848 15.8716 12.163 15.8716L10.1144 15.8715V11.3079C10.1144 10.53 9.47944 9.89734 8.6988 9.89734H7.30092C6.52027 9.89734 5.88529 10.53 5.88529 11.3079V15.8715H3.83657C3.41474 15.8715 3.07166 15.5696 3.07166 15.1983V8.7126C3.07166 8.40099 2.81814 8.14839 2.50541 8.14839H1.80959C1.52047 8.14839 1.28518 7.98817 1.18011 7.71963C1.07516 7.45122 1.13951 7.17458 1.35241 6.97962L7.54262 1.30981C7.80326 1.07102 8.19645 1.07102 8.4571 1.30981L14.6473 6.97962C14.8601 7.17458 14.9244 7.45134 14.8194 7.71963L14.8195 7.71976Z" fill="#EE3764"/>
</svg>
