<svg width="126" height="133" viewBox="0 0 126 133" fill="none" xmlns="http://www.w3.org/2000/svg">
<g id="Group 1000003605">
<g id="Clip path group">
<mask id="mask0_669_1701" style="mask-type:luminance" maskUnits="userSpaceOnUse" x="0" y="-3" width="126" height="136">
<g id="26c532086a">
<path id="Vector" d="M126 132.294H7.62939e-06V-2.26846H126V132.294Z" fill="white"/>
</g>
</mask>
<g mask="url(#mask0_669_1701)">
<g id="Group">
<path id="Vector_2" fill-rule="evenodd" clip-rule="evenodd" d="M125.814 -3.71225C126.715 9.91432 125.795 25.1641 120.053 37.7486C113.953 51.1347 100.047 53.7398 91.4708 64.4006C78.9909 79.8708 94.0418 94.9602 68.2188 111.252C58.8542 117.163 48.4198 121.993 37.5914 123.776C36.8032 123.917 36.015 124.057 35.208 124.157C34.4949 124.257 33.763 124.337 33.0311 124.398C32.1678 124.498 31.2858 124.558 30.4038 124.598C21.1893 124.899 7.69598 120.991 1.31528 131.151C1.18391 131.351 -1.21823 134.618 -0.974258 135.439C1.37158 142.713 51.2912 136.541 59.6048 136.942C76.7764 137.784 93.5164 139.988 110.744 139.367C133.171 138.545 133.79 132.253 132.72 108.246C132.232 97.425 133.471 84.6 130.956 74.2999" fill="#F05E90"/>
</g>
</g>
</g>
<g id="Clip path group_2">
<mask id="mask1_669_1701" style="mask-type:luminance" maskUnits="userSpaceOnUse" x="25" y="-3" width="101" height="136">
<g id="fddb82a048">
<path id="Vector_3" d="M126 132.294H25.9169V-2.26846H126V132.294Z" fill="white"/>
</g>
</mask>
<g mask="url(#mask1_669_1701)">
<g id="Group_2">
<path id="Vector_4" fill-rule="evenodd" clip-rule="evenodd" d="M130.468 -2.32784C132.42 16.9698 138.763 49.6535 121.516 63.6208C114.141 69.5924 105.508 73.9409 100.497 82.6579C94.0978 93.7996 94.1166 107.747 83.5696 116.183C69.9262 127.064 27.1005 128.387 26.7439 134.86C26.3498 142.414 61.4999 141.052 65.4034 141.032C74.0174 140.992 125.983 140.992 130.487 131.573C133.02 126.263 130.543 118.728 130.787 113.157" fill="#EF2B7B"/>
</g>
</g>
</g>
</g>
</svg>
