
<svg width="10" height="13" viewBox="0 0 10 13" fill="none" xmlns="http://www.w3.org/2000/svg">
<path id="Vector" fill-rule="evenodd" clip-rule="evenodd" d="M4.99974 6.54972C4.5114 6.54972 4.04307 6.36273 3.69775 6.02995C3.35243 5.69716 3.15851 5.24585 3.15851 4.7752C3.15851 4.30457 3.35244 3.85323 3.69775 3.52044C4.04307 3.18765 4.51137 3.00077 4.99974 3.00077C5.48811 3.00077 5.95642 3.18767 6.30174 3.52044C6.64706 3.85323 6.84098 4.30455 6.84098 4.7752C6.84058 5.24575 6.64645 5.69677 6.30123 6.02946C5.95602 6.36215 5.48791 6.54923 4.99974 6.54972ZM4.99974 2.39314V2.39305C4.34405 2.39305 3.71512 2.6441 3.25146 3.09103C2.78779 3.53787 2.52729 4.14395 2.52729 4.77588C2.52739 5.40789 2.7879 6.0139 3.25163 6.46073C3.71539 6.90757 4.3443 7.15852 5.00002 7.15842C5.65572 7.15842 6.28465 6.90728 6.74821 6.46037C7.21187 6.01343 7.47227 5.40735 7.47217 4.77532C7.47118 4.14378 7.21037 3.53826 6.74691 3.09172C6.28346 2.64517 5.65514 2.39393 4.99972 2.39327L4.99974 2.39314ZM8.151 8.02375C9.37135 6.34522 10.1133 3.72646 8.18622 1.86917C7.34432 1.05973 6.20363 0.605065 5.01439 0.605065C3.82519 0.605065 2.68451 1.05973 1.84256 1.86917C0.231382 3.42198 0.243089 5.94889 1.87074 8.01494L5.14008 12.1634L8.1509 8.02302L8.151 8.02375ZM5.01473 0.000129631C4.34285 -0.00254728 3.67702 0.123261 3.05594 0.370193C2.43486 0.617228 1.87071 0.980512 1.39625 1.439C0.930512 1.88268 0.566069 2.41517 0.32629 3.00244C0.0865262 3.5898 -0.0231948 4.21884 0.00407936 4.84942C0.0690548 6.13438 0.545397 7.36848 1.36766 8.38192L4.89908 12.8635C4.9587 12.9393 5.05174 12.9839 5.15045 12.9838H5.1564C5.25729 12.9819 5.35113 12.9337 5.40896 12.8539L8.66789 8.37261C9.47824 7.25858 9.94884 6.00089 9.99358 4.83056H9.99368C10.0277 4.20468 9.92404 3.57897 9.68945 2.99449C9.45484 2.40989 9.09475 1.8798 8.63259 1.43891C8.15821 0.980424 7.59417 0.617238 6.97318 0.370203C6.3521 0.123265 5.68637 -0.00262608 5.0146 4.15231e-05L5.01473 0.000129631Z" fill="#EE3764"/>

</svg>
