<svg width="16" height="16" viewBox="0 0 16 16" fill="none" xmlns="http://www.w3.org/2000/svg">
<path id="Vector" fill-rule="evenodd" clip-rule="evenodd" d="M16 8C16 3.58446 12.4149 0 7.99975 0C3.58457 0 0 3.58446 0 8C0 12.4155 3.58457 16 7.99975 16C12.4149 16 16 12.4155 16 8ZM14.73 8C14.73 11.7145 11.7144 14.73 7.99975 14.73C4.28512 14.73 1.27004 11.7145 1.27004 8C1.27004 4.2855 4.28512 1.27 7.99975 1.27C11.7144 1.27 14.73 4.2855 14.73 8ZM7.36472 5.82525V11.302C7.36422 11.6525 7.64921 11.937 7.99924 11.937C8.34977 11.937 8.63426 11.6525 8.63477 11.302V5.82525L10.0217 7.21209C10.2691 7.46 10.6719 7.46 10.9193 7.21209C11.1672 6.96419 11.1672 6.56185 10.9193 6.31394L8.44832 3.84303C8.20041 3.59512 7.79857 3.59512 7.55066 3.84303L5.07966 6.31394C4.83175 6.56185 4.83175 6.96419 5.07966 7.21209C5.32707 7.46 5.72993 7.46 5.97733 7.21209L7.36472 5.82525Z" fill="#55B832"/>
</svg>
