<svg width="16" height="16" viewBox="0 0 16 16" fill="none" xmlns="http://www.w3.org/2000/svg">
<g id="21">
<path id="Vector" d="M8 16C6.41775 16 4.87103 15.5308 3.55544 14.6518C2.23985 13.7727 1.21447 12.5233 0.608967 11.0615C0.00346625 9.59966 -0.15496 7.99113 0.153721 6.43928C0.462403 4.88743 1.22433 3.46197 2.34315 2.34315C3.46197 1.22433 4.88743 0.462403 6.43928 0.153721C7.99113 -0.15496 9.59966 0.00346625 11.0615 0.608967C12.5233 1.21447 13.7727 2.23985 14.6518 3.55544C15.5308 4.87103 16 6.41775 16 8C15.9967 8.5916 15.933 9.18132 15.81 9.76C15.7956 9.82566 15.7683 9.88784 15.7298 9.94297C15.6914 9.99811 15.6424 10.0451 15.5858 10.0813C15.5291 10.1176 15.4659 10.1423 15.3997 10.154C15.3335 10.1658 15.2657 10.1644 15.2 10.15C15.1343 10.1356 15.0722 10.1083 15.017 10.0698C14.9619 10.0314 14.9149 9.98242 14.8787 9.92578C14.8425 9.86913 14.8178 9.80591 14.806 9.73972C14.7942 9.67353 14.7956 9.60566 14.81 9.54C14.9286 9.03501 14.9923 8.51868 15 8C14.9989 6.47197 14.4979 4.98627 13.5733 3.76966C12.6488 2.55306 11.3516 1.67238 9.87969 1.26207C8.40778 0.851749 6.84204 0.93433 5.42146 1.4972C4.00087 2.06007 2.80349 3.07232 2.01207 4.37943C1.22065 5.68653 0.878664 7.2167 1.03832 8.73637C1.19798 10.256 1.8505 11.6817 2.89629 12.7958C3.94209 13.9099 5.3237 14.6512 6.83024 14.9065C8.33679 15.1619 9.88551 14.9173 11.24 14.21C11.2983 14.1701 11.3644 14.143 11.4339 14.1305C11.5035 14.118 11.5749 14.1204 11.6434 14.1375C11.712 14.1546 11.7761 14.186 11.8317 14.2297C11.8872 14.2734 11.9328 14.3284 11.9655 14.391C11.9983 14.4536 12.0174 14.5224 12.0216 14.593C12.0257 14.6635 12.0149 14.7341 11.9898 14.8002C11.9648 14.8662 11.926 14.9262 11.876 14.9761C11.826 15.0261 11.7661 15.0649 11.7 15.09C10.5592 15.6903 9.28906 16.0027 8 16Z" fill="#FF0000"/>
<path id="Vector_2" d="M13.5 14C13.3674 14 13.2402 13.9473 13.1464 13.8536C13.0527 13.7598 13 13.6326 13 13.5V9.5C13 9.36739 13.0527 9.24021 13.1464 9.14645C13.2402 9.05268 13.3674 9 13.5 9C13.6326 9 13.7598 9.05268 13.8536 9.14645C13.9473 9.24021 14 9.36739 14 9.5V13.5C14 13.6326 13.9473 13.7598 13.8536 13.8536C13.7598 13.9473 13.6326 14 13.5 14Z" fill="#FF0000"/>
<path id="Vector_3" d="M9.00011 8.65C9.00391 8.61677 9.00391 8.58323 9.00011 8.55C9.00011 8.55 9.00011 8.55 9.00011 8.5V3.5C9.00011 3.36739 8.94743 3.24021 8.85366 3.14645C8.7599 3.05268 8.63272 3 8.50011 3C8.3675 3 8.24032 3.05268 8.14656 3.14645C8.05279 3.24021 8.00011 3.36739 8.00011 3.5V8.23L5.22011 10.08C5.10982 10.1552 5.03339 10.2706 5.00722 10.4014C4.98105 10.5323 5.00721 10.6682 5.08011 10.78C5.12767 10.8473 5.19055 10.9024 5.26358 10.9407C5.3366 10.9789 5.41768 10.9992 5.50011 11C5.5988 10.998 5.69528 10.9705 5.78011 10.92L8.78011 8.92L8.85011 8.85L8.91011 8.77L9.00011 8.65Z" fill="#FF0000"/>
<path id="Vector_4" d="M13.5001 15.9999C13.4022 15.9985 13.3069 15.9685 13.2259 15.9135C13.145 15.8584 13.082 15.7808 13.0447 15.6903C13.0075 15.5998 12.9976 15.5004 13.0163 15.4043C13.035 15.3083 13.0815 15.2198 13.1501 15.1499C13.2187 15.0795 13.3068 15.0314 13.4031 15.0118C13.4994 14.9922 13.5994 15.002 13.6901 15.0399C13.7525 15.0612 13.8078 15.0993 13.8501 15.1499C13.8979 15.1948 13.936 15.249 13.9621 15.3092C13.9881 15.3694 14.0016 15.4343 14.0016 15.4999C14.0016 15.5655 13.9881 15.6304 13.9621 15.6906C13.936 15.7508 13.8979 15.805 13.8501 15.8499C13.8078 15.9006 13.7525 15.9386 13.6901 15.9599C13.6308 15.9883 13.5657 16.002 13.5001 15.9999Z" fill="#FF0000"/>
</g>
</svg>
