<svg width="20" height="18" viewBox="0 0 20 18" fill="none" xmlns="http://www.w3.org/2000/svg">
<g id="Group">
<path id="Vector" d="M19.7556 10.6051L9.39495 0.244377C9.06952 -0.081051 8.53937 -0.081051 8.21394 0.244377L7.61916 0.839159L7.02438 0.244377C6.69854 -0.0818666 6.16799 -0.081051 5.84297 0.244377L0.243408 5.84394C-0.081204 6.16937 -0.081204 6.6987 0.243816 7.02453L10.6045 17.3852C10.7672 17.5479 10.9813 17.6295 11.195 17.6295C11.4087 17.6295 11.6228 17.5479 11.7855 17.3852L12.3805 16.7902L12.9755 17.3852C13.1382 17.5479 13.3523 17.6295 13.566 17.6295C13.7797 17.6295 13.9938 17.5479 14.1565 17.3852L19.7556 11.7861C20.0815 11.4606 20.0815 10.9305 19.7556 10.6051ZM11.195 16.7947L0.834317 6.43403L6.43347 0.83447L16.7941 11.1956L11.195 16.7947ZM13.566 16.7947L12.971 16.1997L17.3846 11.7861C17.7105 11.4606 17.7105 10.9305 17.3846 10.6051L8.20928 1.42933L8.80404 0.83447L19.1651 11.1956L13.566 16.7947Z" fill="#EF2B7B"/>
<path id="Vector_2" d="M14.5508 11.1952C14.5508 10.9468 14.6475 10.7136 14.8232 10.5382C14.9015 10.4599 14.9456 10.3539 14.9456 10.243C14.9456 10.1325 14.9015 10.026 14.8232 9.94772L7.68134 2.80544C7.52474 2.64884 7.24744 2.64884 7.09084 2.80544C6.72871 3.16797 6.13861 3.16716 5.77648 2.80544C5.61989 2.64884 5.34258 2.64884 5.18598 2.80544L2.80563 5.1862C2.64251 5.34932 2.64251 5.61358 2.80563 5.7767C3.16776 6.13924 3.16776 6.72851 2.80563 7.09064C2.64251 7.25377 2.64251 7.51802 2.80563 7.68114L9.94751 14.8234C10.1041 14.98 10.3814 14.98 10.538 14.8234C10.8895 14.4723 11.5012 14.4719 11.852 14.8234C11.9303 14.9017 12.0363 14.9458 12.1472 14.9458C12.2581 14.9458 12.3642 14.9017 12.4425 14.8234L14.8232 12.4427C14.9015 12.3644 14.9456 12.2583 14.9456 12.1474C14.9456 12.0365 14.9015 11.9305 14.8232 11.8522C14.6479 11.6764 14.5508 11.4431 14.5508 11.1952ZM12.1121 13.9723C11.5657 13.6388 10.8251 13.6388 10.2778 13.9723L3.65631 7.35042C3.99723 6.78968 3.99723 6.07807 3.6559 5.51693L5.51671 3.65612C6.07826 3.99704 6.78988 3.99704 7.35061 3.65612L13.9721 10.278C13.8053 10.5513 13.7156 10.8665 13.7156 11.1952C13.7156 11.5239 13.8053 11.8387 13.9725 12.1123L12.1121 13.9723Z" fill="#EF2B7B"/>
<path id="Vector_3" d="M7.56676 7.56724C6.8792 8.25521 6.8792 9.37423 7.56676 10.0622C7.91053 10.4064 8.36238 10.5781 8.81464 10.5781C9.26648 10.5781 9.71833 10.4064 10.0621 10.0622C10.7497 9.37463 10.7497 8.25521 10.0621 7.56724C9.37455 6.87887 8.25431 6.87969 7.56676 7.56724ZM9.47161 9.47169C9.10948 9.83341 8.51939 9.83423 8.15726 9.47169C7.79553 9.10956 7.79553 8.51988 8.15726 8.15774C8.33832 7.97668 8.57648 7.88615 8.81464 7.88615C9.05239 7.88615 9.29054 7.97668 9.47161 8.15774C9.83374 8.52028 9.83374 9.10956 9.47161 9.47169Z" fill="#EF2B7B"/>
</g>
</svg>
