<svg width="17" height="17" viewBox="0 0 17 17" fill="none" xmlns="http://www.w3.org/2000/svg">
<g id="Black">
<path id="Vector" d="M7.47627 0.0494576C3.73246 0.501926 0.754925 3.34445 0.105414 7.07366C0.0032435 7.66114 -0.0295969 8.71204 0.0287861 9.31776C0.379084 12.7478 2.67062 15.5757 5.94372 16.612C8.12943 17.3053 10.6144 17.0572 12.603 15.9479C14.807 14.7218 16.3541 12.6091 16.8358 10.1789C16.9562 9.55494 17 9.11342 17 8.47121C17 4.16911 13.7707 0.549362 9.49048 0.0494576C8.9395 -0.0162239 8.00902 -0.0162239 7.47627 0.0494576ZM9.39926 1.21712C12.7417 1.65134 15.3434 4.25304 15.7776 7.59546C16.0622 9.81037 15.2814 12.0764 13.6795 13.6782C11.0924 16.2653 7.02015 16.5536 4.0937 14.3569C2.25829 12.9776 1.16725 10.7956 1.16361 8.50405C1.16361 5.35137 3.18512 2.54168 6.1663 1.54552C6.66985 1.38132 7.21355 1.25726 7.66966 1.20252C8.10754 1.15144 8.94314 1.15874 9.39926 1.21712Z" fill="#97C498"/>
<path id="Vector_2" d="M5.46931 3.43926C5.26497 3.50859 5.03509 3.68374 4.73952 3.9939C4.1265 4.63247 3.60835 5.33306 3.45875 5.71985C3.38577 5.90959 3.38212 5.94608 3.42226 6.23435C3.56092 7.21227 4.25786 8.60616 5.19929 9.79206C5.61162 10.3102 6.68806 11.383 7.20256 11.7953C8.36292 12.7185 9.64005 13.3644 10.6727 13.5505C10.9792 13.6089 11.023 13.6089 11.2018 13.5541C11.4463 13.4848 11.9462 13.1637 12.3877 12.7951C13.4495 11.9084 13.6977 11.5326 13.5554 11.0327C13.4714 10.7554 13.2671 10.551 12.6212 10.1168C11.6981 9.49285 11.0449 9.1608 10.6873 9.12796C10.3516 9.09512 10.1947 9.17175 9.85534 9.53664L9.57437 9.84315L9.37733 9.75558C9.10001 9.62421 8.62564 9.3104 8.32643 9.05133C7.9141 8.69373 7.39595 8.00408 7.20621 7.54432L7.15147 7.41661L7.43974 7.15388C8.03087 6.61384 8.02722 6.29638 7.41055 5.21265C7.10769 4.6872 6.56764 3.90268 6.35965 3.69104C6.09328 3.42467 5.76852 3.32979 5.46931 3.43926ZM5.98381 5.16886C6.26843 5.60308 6.63697 6.2307 6.63697 6.27449C6.63697 6.28908 6.5275 6.3876 6.39614 6.49707C6.26478 6.60289 6.08598 6.78534 5.99841 6.89846L5.8415 7.11009L5.88894 7.32173C6.09693 8.20478 6.74279 9.22283 7.5565 9.94167C8.18047 10.4963 9.00148 10.9488 9.66924 11.1057L9.88453 11.1531L10.0779 11.0108C10.1874 10.9305 10.3698 10.7517 10.4866 10.6094C10.6034 10.4708 10.7019 10.3577 10.7128 10.3577C10.8114 10.3577 12.2527 11.248 12.2563 11.3137C12.2563 11.3575 11.7236 11.8282 11.3441 12.1164C10.9026 12.4521 10.9318 12.4485 10.3224 12.2478C8.41765 11.6165 6.07139 9.46366 5.06793 7.42025C4.8344 6.94224 4.6483 6.44964 4.61181 6.19421C4.58992 6.03731 4.59721 6.02636 4.87818 5.65052C5.1628 5.27468 5.63716 4.73829 5.68095 4.73829C5.69555 4.73829 5.83056 4.93168 5.98381 5.16886Z" fill="#97C498"/>
<path id="Vector_3" d="M8.74245 3.50532C8.55635 3.61479 8.44688 3.84467 8.47243 4.07091C8.50527 4.38836 8.68771 4.52702 9.16207 4.61095C10.5706 4.85543 11.7492 5.85159 12.2162 7.19805C12.2783 7.37685 12.3549 7.66146 12.3841 7.82931C12.4717 8.33287 12.6213 8.49707 12.9935 8.49707C13.3438 8.49707 13.57 8.26354 13.57 7.91324C13.57 7.71985 13.4569 7.1944 13.3438 6.85505C12.8621 5.38453 11.6105 4.13294 10.14 3.65128C9.78969 3.53451 9.27154 3.42505 9.06355 3.42505C8.94314 3.42505 8.83367 3.45424 8.74245 3.50532Z" fill="#97C498"/>
<path id="Vector_4" d="M8.78984 5.20944C8.5928 5.31161 8.49792 5.47946 8.49792 5.72029C8.49792 6.06694 8.65848 6.23479 9.1 6.34061C9.8006 6.51211 10.4756 7.20541 10.669 7.94614C10.742 8.22346 10.8004 8.32563 10.961 8.42416C11.1215 8.52268 11.428 8.52268 11.5886 8.42416C11.7272 8.34023 11.8549 8.11035 11.8549 7.94614C11.8549 7.78194 11.7637 7.45354 11.6324 7.14338C11.2383 6.2129 10.4027 5.48311 9.4284 5.20944C9.11095 5.12187 8.95039 5.12187 8.78984 5.20944Z" fill="#97C498"/>
</g>
</svg>
