<svg width="16" height="16" viewBox="0 0 16 16" fill="none" xmlns="http://www.w3.org/2000/svg">
<g id="SVGRepo_iconCarrier">
<path id="Path 27" d="M15.5 16C11.3905 15.9955 7.45065 14.361 4.54481 11.4552C1.63898 8.54935 0.00449976 4.60948 0 0.500007C0 0.367399 0.052678 0.240222 0.146446 0.146454C0.240214 0.0526855 0.367392 7.10912e-06 0.5 7.10912e-06H3.345C3.58973 -0.000671513 3.83216 0.0472412 4.05824 0.140967C4.28431 0.234693 4.48953 0.372367 4.662 0.546007L6.624 2.50701C6.76339 2.64631 6.87396 2.81171 6.9494 2.99376C7.02485 3.17581 7.06368 3.37094 7.06368 3.56801C7.06368 3.76507 7.02485 3.9602 6.9494 4.14225C6.87396 4.3243 6.76339 4.4897 6.624 4.629L5.2 6.048C6.29486 8.05542 7.94457 9.70514 9.95199 10.8L11.371 9.38C11.6523 9.0988 12.0337 8.94082 12.4315 8.94082C12.8292 8.94082 13.2107 9.0988 13.492 9.38L15.454 11.342C15.6271 11.5142 15.7645 11.719 15.8582 11.9445C15.9519 12.17 16.0001 12.4118 16 12.656V15.5C16 15.6326 15.9473 15.7598 15.8535 15.8536C15.7598 15.9473 15.6326 16 15.5 16ZM1.009 1.00001C1.14015 4.66896 2.65626 8.15204 5.25217 10.7481C7.84808 13.3442 11.331 14.8606 15 14.992V12.656C15.0003 12.5425 14.9781 12.4301 14.9346 12.3252C14.8912 12.2203 14.8274 12.1251 14.747 12.045L12.785 10.083C12.6912 9.98927 12.5641 9.93661 12.4315 9.93661C12.2989 9.93661 12.1718 9.98927 12.078 10.083L10.4 11.763C10.3256 11.8373 10.2298 11.8862 10.126 11.9029C10.0223 11.9196 9.91589 11.9032 9.822 11.856C7.37385 10.6164 5.38508 8.62793 4.145 6.18C4.09743 6.0861 4.08072 5.97957 4.09723 5.87561C4.11375 5.77164 4.16266 5.67554 4.237 5.601L5.917 3.92201C5.96356 3.87556 6.0005 3.82038 6.02571 3.75964C6.05092 3.69889 6.06389 3.63377 6.06389 3.56801C6.06389 3.50224 6.05092 3.43712 6.02571 3.37637C6.0005 3.31563 5.96356 3.26045 5.917 3.21401L3.955 1.25301C3.87507 1.17263 3.78001 1.10889 3.67531 1.06547C3.57061 1.02204 3.45835 0.999794 3.345 1.00001H1.009Z" fill="#EE3764"/>
</g>
</svg>
