<svg width="18" height="18" viewBox="0 0 18 18" fill="none" xmlns="http://www.w3.org/2000/svg">
<g id="Group 1000003161">
<g id="Group 1000003114">
<path id="Vector" opacity="0.4" d="M9.09659 9.6238C9.04059 9.6158 8.96859 9.6158 8.90459 9.6238C7.49659 9.5758 6.37659 8.42381 6.37659 7.00779C6.37659 5.55979 7.54459 4.38379 9.00059 4.38379C10.4486 4.38379 11.6246 5.55979 11.6246 7.00779C11.6166 8.42381 10.5046 9.5758 9.09659 9.6238Z" stroke="#EF2B7B" stroke-width="1.5" stroke-linecap="round" stroke-linejoin="round"/>
<path id="Vector_2" opacity="0.34" d="M14.3918 14.904C12.9678 16.208 11.0798 17 8.99981 17C6.91979 17 5.03179 16.208 3.60779 14.904C3.68779 14.152 4.16779 13.416 5.02379 12.84C7.21579 11.384 10.7998 11.384 12.9758 12.84C13.8318 13.416 14.3118 14.152 14.3918 14.904Z" stroke="#EF2B7B" stroke-width="1.5" stroke-linecap="round" stroke-linejoin="round"/>
<path id="Vector_3" d="M9 17C13.4182 17 17 13.4182 17 9C17 4.58172 13.4182 1 9 1C4.58172 1 1 4.58172 1 9C1 13.4182 4.58172 17 9 17Z" stroke="#EF2B7B" stroke-width="1.5" stroke-linecap="round" stroke-linejoin="round"/>
</g>
</g>
</svg>
