<svg width="20" height="21" viewBox="0 0 20 21" fill="none" xmlns="http://www.w3.org/2000/svg">
<path id="Vector" d="M13.8596 3.31085C12.7523 2.20922 11.3498 1.44983 9.82039 1.1239C8.29099 0.797967 6.69978 0.91934 5.23785 1.47344C3.77592 2.02755 2.50542 2.99083 1.57892 4.2476C0.652427 5.50437 0.109327 7.0012 0.0148417 8.55834C-0.0796432 10.1155 0.278504 11.6667 1.04628 13.0258C1.81405 14.3848 2.9588 15.4939 4.34306 16.2199C5.72732 16.9458 7.29223 17.2577 8.84988 17.1182C10.4075 16.9786 11.8917 16.3935 13.1241 15.4332L18.4649 20.7287C18.6497 20.8669 18.8782 20.934 19.1086 20.9177C19.339 20.9014 19.5557 20.8027 19.719 20.6398C19.8823 20.4769 19.9812 20.2607 19.9976 20.0309C20.014 19.8011 19.9467 19.5732 19.8081 19.3889L14.4993 14.0614C15.7382 12.5052 16.3579 10.5478 16.2399 8.56416C16.1219 6.58048 15.2744 4.70995 13.8596 3.31085ZM12.4845 13.4234C11.908 14.0012 11.2227 14.4596 10.4681 14.7725C9.71344 15.0853 8.90427 15.2463 8.08706 15.2463C7.26985 15.2463 6.46069 15.0853 5.70605 14.7725C4.95142 14.4596 4.26617 14.0012 3.68967 13.4234C3.10743 12.8542 2.64599 12.1739 2.33281 11.4231C2.01964 10.6722 1.86114 9.8662 1.86675 9.053C1.86675 7.40318 2.52379 5.82093 3.69332 4.65433C4.86286 3.48773 6.44908 2.83234 8.10305 2.83234C9.75702 2.83234 11.3433 3.48773 12.5128 4.65433C13.6823 5.82093 14.3394 7.40318 14.3394 9.053C14.339 9.86821 14.1746 10.6751 13.856 11.4258C13.5374 12.1765 13.071 12.8558 12.4845 13.4234Z" fill="#EF2B7B"/>
</svg>
