<svg width="20" height="20" viewBox="0 0 20 20" fill="none" xmlns="http://www.w3.org/2000/svg">
<path id="Vector" d="M13.8596 2.36874C12.7523 1.26573 11.3498 0.505395 9.82039 0.179055C8.29099 -0.147286 6.69978 -0.0257604 5.23785 0.529037C3.77592 1.08383 2.50542 2.04831 1.57892 3.30666C0.652427 4.565 0.109327 6.0637 0.0148417 7.62279C-0.0796432 9.18187 0.278504 10.7351 1.04628 12.0958C1.81405 13.4566 2.9588 14.5671 4.34306 15.2939C5.72732 16.0208 7.29223 16.3331 8.84988 16.1933C10.4075 16.0536 11.8917 15.4678 13.1241 14.5062L18.4649 19.8084C18.6497 19.9467 18.8782 20.0139 19.1086 19.9976C19.339 19.9812 19.5557 19.8824 19.719 19.7193C19.8823 19.5562 19.9812 19.3398 19.9976 19.1097C20.014 18.8796 19.9467 18.6514 19.8081 18.4668L14.4993 13.1328C15.7382 11.5746 16.3579 9.61478 16.2399 7.62862C16.1219 5.64245 15.2744 3.76959 13.8596 2.36874ZM12.4845 12.4939C11.908 13.0724 11.2227 13.5314 10.4681 13.8447C9.71344 14.1579 8.90427 14.3191 8.08706 14.3191C7.26985 14.3191 6.46069 14.1579 5.70605 13.8447C4.95142 13.5314 4.26617 13.0724 3.68967 12.4939C3.10743 11.924 2.64599 11.2428 2.33281 10.4911C2.01964 9.73931 1.86114 8.93229 1.86675 8.11806C1.86675 6.46618 2.52379 4.88196 3.69332 3.7139C4.86286 2.54584 6.44908 1.88963 8.10305 1.88963C9.75702 1.88963 11.3433 2.54584 12.5128 3.7139C13.6823 4.88196 14.3394 6.46618 14.3394 8.11806C14.339 8.93429 14.1746 9.74215 13.856 10.4938C13.5374 11.2454 13.071 11.9256 12.4845 12.4939Z" fill="#EE3764"/>
</svg>
