<svg width="17" height="17" viewBox="0 0 17 17" fill="none" xmlns="http://www.w3.org/2000/svg">
<g id="Group 1000003115">
<path id="Vector" d="M6.77987 6.0712C6.77987 6.51831 6.41735 6.88069 5.97025 6.88069C5.52315 6.88069 5.16077 6.51831 5.16077 6.0712C5.16077 5.6241 5.52315 5.26172 5.97025 5.26172C6.41735 5.26172 6.77987 5.6241 6.77987 6.0712Z" fill="#EE3764"/>
<path id="Vector_2" d="M11.8393 6.0712C11.8393 6.51831 11.4769 6.88069 11.0298 6.88069C10.5827 6.88069 10.2202 6.51831 10.2202 6.0712C10.2202 5.6241 10.5827 5.26172 11.0298 5.26172C11.4769 5.26172 11.8393 5.6241 11.8393 6.0712Z" fill="#EE3764"/>
<path id="Vector_3" d="M12.2723 9.73433C12.1702 9.69977 12.0587 9.70722 11.9622 9.75506C11.8657 9.8029 11.7922 9.8872 11.7582 9.98938C11.5052 10.6417 11.0558 11.1993 10.472 11.585C9.88828 11.9709 9.19911 12.1657 8.49982 12.1427C7.80389 12.1614 7.11923 11.9646 6.5396 11.5792C5.95982 11.1937 5.51355 10.6384 5.26174 9.98938C5.19018 9.77702 4.96006 9.66277 4.74771 9.73432C4.53535 9.80588 4.4211 10.036 4.49265 10.2484C4.8068 11.0528 5.35852 11.7425 6.07436 12.2255C6.79021 12.7085 7.63629 12.9621 8.49983 12.9522C9.37017 12.9703 10.2252 12.7207 10.949 12.2372C11.673 11.7536 12.2309 11.0593 12.5475 10.2484C12.5813 10.1437 12.5711 10.0299 12.5192 9.93285C12.4673 9.83581 12.3781 9.76428 12.2723 9.73433Z" fill="#EE3764"/>
<path id="Vector_4" d="M8.5 0C6.24568 0 4.08378 0.895526 2.48958 2.48958C0.89556 4.08375 0 6.24592 0 8.5C0 10.7541 0.895526 12.9162 2.48958 14.5104C4.08375 16.1044 6.24592 17 8.5 17C10.7541 17 12.9162 16.1045 14.5104 14.5104C16.1044 12.9163 17 10.7541 17 8.5C17 6.24592 16.1045 4.08378 14.5104 2.48958C12.9163 0.895561 10.7541 0 8.5 0ZM8.5 16.1907C6.46037 16.1907 4.50427 15.3804 3.06204 13.9382C1.6198 12.4959 0.809484 10.5398 0.809484 8.50021C0.809484 6.46064 1.61977 4.50448 3.06204 3.06225C4.50427 1.62001 6.46043 0.809692 8.5 0.809692C10.5396 0.809692 12.4957 1.61997 13.938 3.06225C15.3802 4.50448 16.1905 6.46064 16.1905 8.50021C16.1905 10.5398 15.3802 12.4959 13.938 13.9382C12.4957 15.3804 10.5396 16.1907 8.5 16.1907Z" fill="#EE3764"/>
</g>
</svg>
