<svg width="23" height="21" viewBox="0 0 23 21" fill="none" xmlns="http://www.w3.org/2000/svg">
<g id="Sort By">
<path id="Vector" d="M11.2921 6.17114C11.2173 6.24855 11.1281 6.31047 11.0293 6.35336C10.9306 6.39624 10.8245 6.41926 10.7168 6.4211C10.6092 6.42294 10.5023 6.40356 10.4022 6.36406C10.3021 6.32457 10.2108 6.26574 10.1334 6.19093L6.57582 2.75241V16.7031C6.57582 16.9206 6.48945 17.1291 6.33569 17.2829C6.18194 17.4366 5.97341 17.523 5.75597 17.523C5.53853 17.523 5.33 17.4366 5.17625 17.2829C5.02249 17.1291 4.93612 16.9206 4.93612 16.7031V2.75241L1.37861 6.19093C1.22139 6.33735 1.01297 6.41621 0.798203 6.41054C0.583432 6.40486 0.37947 6.31511 0.230199 6.16059C0.0809275 6.00607 -0.0017238 5.79913 2.72664e-05 5.58429C0.00177833 5.36945 0.0877918 5.16388 0.239562 5.01182L5.17622 0.240272L5.18645 0.230379L5.19404 0.225569C5.26388 0.158727 5.345 0.104785 5.43366 0.0662439L5.43513 0.065424C5.44136 0.0628005 5.4482 0.0614889 5.45448 0.0590293C5.46164 0.0561871 5.46886 0.0549845 5.47634 0.052361C5.5587 0.0219006 5.64546 0.00501102 5.73323 0.00235031L5.74586 0.00109306L5.75597 0L5.76575 0.000983596C5.77122 0.000983596 5.77603 0.00240474 5.78133 0.00256871C5.86877 0.00539226 5.95519 0.0223166 6.03723 0.0526888C6.04396 0.0551484 6.05062 0.0562963 6.05729 0.0589198C6.06396 0.0615434 6.0703 0.062582 6.07642 0.0652056L6.08008 0.0671733C6.16804 0.105652 6.24854 0.159304 6.3179 0.225678L6.32549 0.230488L6.33544 0.240107L11.2724 5.01192C11.4287 5.16304 11.5186 5.37006 11.5223 5.58745C11.526 5.80484 11.4432 6.0148 11.2921 6.17114ZM22.7701 14.0847C22.6953 14.0073 22.606 13.9454 22.5073 13.9025C22.4086 13.8596 22.3024 13.8366 22.1948 13.8348C22.0872 13.833 21.9803 13.8523 21.8802 13.8918C21.7801 13.9313 21.6887 13.9901 21.6113 14.0649L18.0538 17.5034V3.5527C18.0538 3.33526 17.9674 3.12672 17.8136 2.97297C17.6599 2.81922 17.4513 2.73284 17.2339 2.73284C17.0165 2.73284 16.8079 2.81922 16.6542 2.97297C16.5004 3.12672 16.4141 3.33526 16.4141 3.5527V17.5033L12.8566 14.0648C12.6993 13.9184 12.4909 13.8395 12.2761 13.8452C12.0614 13.8509 11.8574 13.9406 11.7081 14.0951C11.5589 14.2497 11.4762 14.4566 11.478 14.6714C11.4797 14.8863 11.5657 15.0918 11.7175 15.2439L16.6542 20.0155L16.6641 20.0253C16.6665 20.0276 16.6696 20.0282 16.672 20.0304C16.6988 20.0557 16.7273 20.0792 16.7572 20.1007C16.7634 20.1052 16.7688 20.1112 16.7751 20.1155C16.8196 20.1456 16.8669 20.1712 16.9165 20.192L16.9279 20.196C16.9326 20.198 16.9376 20.1986 16.9424 20.2004C16.9583 20.2065 16.9749 20.2101 16.9911 20.2152C17.0174 20.2246 17.0441 20.2327 17.0713 20.2394C17.1783 20.2613 17.2887 20.2613 17.3958 20.2394C17.4266 20.232 17.457 20.2228 17.4868 20.2118C17.4993 20.2077 17.5121 20.2051 17.5244 20.2004C17.5294 20.1985 17.5344 20.1978 17.5393 20.1959L17.5503 20.1921C17.6001 20.1712 17.6477 20.1455 17.6924 20.1153C17.6963 20.1126 17.6995 20.1089 17.7033 20.1061C17.7356 20.0832 17.7663 20.0579 17.795 20.0305L17.8028 20.0255L17.8128 20.0158L22.7494 15.244C22.8269 15.1693 22.8889 15.08 22.9319 14.9812C22.9749 14.8825 22.998 14.7763 22.9999 14.6686C23.0018 14.561 22.9825 14.454 22.943 14.3538C22.9036 14.2536 22.8448 14.1622 22.7701 14.0847Z" fill="#EF2B7B"/>
</g>
</svg>
