<svg width="22" height="22" viewBox="0 0 22 22" fill="none" xmlns="http://www.w3.org/2000/svg">
<g id="trash-2">
<path id="Vector" d="M2.75 5.5H4.58333H19.25" stroke="#EE3764" stroke-width="1.5" stroke-linecap="round" stroke-linejoin="round"/>
<path id="Vector_2" d="M17.4162 5.50065V18.334C17.4162 18.8202 17.2231 19.2865 16.8792 19.6303C16.5354 19.9742 16.0691 20.1673 15.5829 20.1673H6.41622C5.92999 20.1673 5.46367 19.9742 5.11986 19.6303C4.77604 19.2865 4.58289 18.8202 4.58289 18.334V5.50065M7.33289 5.50065V3.66732C7.33289 3.18109 7.52604 2.71477 7.86986 2.37096C8.21367 2.02714 8.67999 1.83398 9.16622 1.83398H12.8329C13.3191 1.83398 13.7854 2.02714 14.1292 2.37096C14.4731 2.71477 14.6662 3.18109 14.6662 3.66732V5.50065" stroke="#EE3764" stroke-width="1.5" stroke-linecap="round" stroke-linejoin="round"/>
<path id="Vector_3" d="M9.16711 10.084V15.584" stroke="#EE3764" stroke-width="1.5" stroke-linecap="round" stroke-linejoin="round"/>
<path id="Vector_4" d="M12.8329 10.084V15.584" stroke="#EE3764" stroke-width="1.5" stroke-linecap="round" stroke-linejoin="round"/>
</g>
</svg>
