<svg width="30" height="28" viewBox="0 0 30 28" fill="none" xmlns="http://www.w3.org/2000/svg">
<g id="Group 1000003595">
<rect id="Rectangle 17621" x="0.0269775" width="29.4354" height="27.9716" rx="9" transform="rotate(0.0552841 0.0269775 0)" fill="#EF2B7B"/>
<path id="Compound Path" d="M6.99963 11.7287C7.00271 12.0479 7.10827 12.358 7.30118 12.6144C7.49409 12.8709 7.76445 13.0606 8.0735 13.1563V19.3204C8.0735 19.7659 8.25308 20.1931 8.57275 20.5081C8.89241 20.823 9.32597 21 9.77804 21H19.2212C19.4451 21 19.6667 20.9566 19.8735 20.8722C20.0803 20.7877 20.2682 20.664 20.4265 20.5081C20.5848 20.3521 20.7104 20.1669 20.796 19.9632C20.8817 19.7594 20.9258 19.541 20.9258 19.3204V13.1563C21.2348 13.0606 21.5052 12.8709 21.6981 12.6144C21.891 12.358 21.9966 12.0479 21.9996 11.7287V10.9393V10.8049L20.6871 8.67186C20.5679 8.4683 20.3965 8.29912 20.1901 8.18123C19.9837 8.06334 19.7495 8.00086 19.511 8.00003H9.72691C9.50651 7.99855 9.28904 8.04973 9.09311 8.14918C8.89718 8.24864 8.72863 8.39341 8.60191 8.57109L7.05077 10.7545V10.7881H7.03372V10.8553V10.9057H6.99963V11.7287ZM16.2553 20.3282H12.744V16.9018C12.744 16.7236 12.8158 16.5528 12.9437 16.4268C13.0715 16.3008 13.2449 16.23 13.4258 16.23H15.5735C15.7543 16.23 15.9277 16.3008 16.0556 16.4268C16.1835 16.5528 16.2553 16.7236 16.2553 16.9018V20.3282ZM19.2383 20.3282H16.9371V16.9018C16.9371 16.5455 16.7935 16.2037 16.5377 15.9517C16.282 15.6997 15.9352 15.5582 15.5735 15.5582H13.4258C13.0641 15.5582 12.7173 15.6997 12.4615 15.9517C12.2058 16.2037 12.0621 16.5455 12.0621 16.9018V20.3282H9.77804C9.5068 20.3282 9.24666 20.222 9.05487 20.033C8.86307 19.844 8.75532 19.5877 8.75532 19.3204V13.2235C9.06935 13.1776 9.36117 13.0367 9.59054 12.8204C9.73851 13.1193 9.96356 13.3746 10.2432 13.5608C10.5228 13.747 10.8471 13.8575 11.1837 13.8814C11.5203 13.9052 11.8574 13.8414 12.1611 13.6965C12.4649 13.5516 12.7246 13.3305 12.9144 13.0556C13.0915 13.3085 13.3284 13.5152 13.6045 13.658C13.8806 13.8008 14.1878 13.8754 14.4996 13.8754C14.8115 13.8754 15.1187 13.8008 15.3948 13.658C15.6709 13.5152 15.9077 13.3085 16.0849 13.0556C16.2746 13.3305 16.5344 13.5516 16.8381 13.6965C17.1419 13.8414 17.4789 13.9052 17.8155 13.8814C18.1521 13.8575 18.4765 13.747 18.7561 13.5608C19.0357 13.3746 19.2608 13.1193 19.4087 12.8204C19.6381 13.0367 19.9299 13.1776 20.244 13.2235V19.3204C20.244 19.5877 20.1362 19.844 19.9444 20.033C19.7526 20.222 19.4925 20.3282 19.2212 20.3282H19.2383ZM13.2553 8.67186L12.5905 10.8553V10.9225V11.9806C12.5905 12.3103 12.4576 12.6264 12.2211 12.8595C11.9845 13.0926 11.6637 13.2235 11.3292 13.2235C10.9946 13.2235 10.6738 13.0926 10.4373 12.8595C10.2007 12.6264 10.0678 12.3103 10.0678 11.9806V11.0401L11.5167 8.67186H13.2553ZM15.0451 8.67186L15.761 10.9897V11.9806C15.761 12.3058 15.6299 12.6177 15.3965 12.8476C15.1632 13.0776 14.8467 13.2067 14.5167 13.2067C14.1867 13.2067 13.8702 13.0776 13.6368 12.8476C13.4035 12.6177 13.2724 12.3058 13.2724 11.9806V10.9897L13.9883 8.67186H15.0451ZM17.7383 8.67186L18.9315 11.0233V11.9806C18.9315 12.3058 18.8004 12.6177 18.567 12.8476C18.3336 13.0776 18.0171 13.2067 17.6871 13.2067C17.3571 13.2067 17.0406 13.0776 16.8073 12.8476C16.5739 12.6177 16.4428 12.3058 16.4428 11.9806V10.9393V10.8721L15.778 8.68866L17.7383 8.67186ZM20.1076 9.00778L21.3178 11.0401V11.7287C21.3178 11.9514 21.228 12.165 21.0682 12.3225C20.9084 12.48 20.6916 12.5685 20.4655 12.5685C20.2395 12.5685 20.0227 12.48 19.8629 12.3225C19.7031 12.165 19.6133 11.9514 19.6133 11.7287V10.9393V10.8721V10.8049L18.4883 8.67186H19.511C19.6317 8.6708 19.7506 8.70134 19.8554 8.76036C19.9602 8.81937 20.0472 8.90476 20.1076 9.00778ZM9.18145 8.95739C9.24315 8.87086 9.3247 8.79989 9.41949 8.75028C9.51427 8.70066 9.6196 8.6738 9.72691 8.67186H10.7155L9.45418 10.7545H9.43713V10.8049V10.8721V11.6615C9.43713 11.8842 9.34734 12.0979 9.18751 12.2553C9.02768 12.4128 8.8109 12.5013 8.58486 12.5013C8.35882 12.5013 8.14205 12.4128 7.98221 12.2553C7.82238 12.0979 7.73259 11.8842 7.73259 11.6615V10.9897L9.18145 8.95739Z" fill="white"/>
</g>
</svg>
