<svg width="24" height="16" viewBox="0 0 24 16" fill="none" xmlns="http://www.w3.org/2000/svg">
<path id="Vector" d="M19 10C21.2091 10 23 12 23 13.5C23 14.3284 22.3284 15 21.5 15H21M17 7C18.6569 7 20 5.65685 20 4C20 2.34315 18.6569 1 17 1M5 10C2.79086 10 1 12 1 13.5C1 14.3284 1.67157 15 2.5 15H3M7 7C5.34315 7 4 5.65685 4 4C4 2.34315 5.34315 1 7 1M16.5 15H7.5C6.67157 15 6 14.3284 6 13.5C6 11 9 10 12 10C15 10 18 11 18 13.5C18 14.3284 17.3284 15 16.5 15ZM15 4C15 5.65685 13.6569 7 12 7C10.3431 7 9 5.65685 9 4C9 2.34315 10.3431 1 12 1C13.6569 1 15 2.34315 15 4Z" stroke="#EE3764" stroke-width="1.5" stroke-linecap="round" stroke-linejoin="round"/>
</svg>
