<svg width="21" height="22" viewBox="0 0 21 22" fill="none" xmlns="http://www.w3.org/2000/svg">
<g id="Black">
<path id="Vector" d="M5.30802 2.91953C2.50914 4.16503 0.173938 5.22353 0.116818 5.27028L0.0160182 5.35376L0.00593818 7.37393C0.00257818 8.6595 0.00929818 9.42416 0.0328182 9.48092C0.120178 9.70798 0.439378 9.75807 0.614098 9.56774L0.704818 9.46757V7.60433V5.74444L5.5029 3.61073C8.1405 2.43536 10.3447 1.45365 10.4018 1.42694C10.5026 1.38019 10.5631 1.40691 15.3981 3.56064L20.2936 5.7411V7.55424C20.2936 9.58778 20.2903 9.56106 20.5154 9.65456C20.6733 9.72134 20.8077 9.69129 20.9152 9.56106L20.9992 9.46089V7.44739C20.9992 5.98485 20.9891 5.40718 20.9589 5.34374C20.9354 5.29365 20.8514 5.22687 20.7506 5.17678C20.6565 5.13337 18.3347 4.09491 15.5896 2.87278C12.4816 1.49038 10.5631 0.652262 10.4992 0.652262C10.4387 0.652262 8.31858 1.58054 5.30802 2.91953Z" fill="#EE3764"/>
<path id="Vector_2" d="M17.3515 8.68386C17.2944 8.71391 17.2306 8.77068 17.207 8.81075C17.1298 8.95767 16.4645 10.9879 16.4645 11.078C16.4645 11.2183 16.5317 11.3318 16.6493 11.3886C16.7366 11.4286 16.8811 11.4386 17.3011 11.4386H17.8421V11.9562V12.4738H17.4725C17.113 12.4738 17.1029 12.4771 16.9954 12.5706C16.9013 12.6541 16.8845 12.6908 16.8845 12.821C16.8845 12.9413 16.9046 12.9913 16.9786 13.0648L17.0693 13.1583L18.1512 13.1683C19.2869 13.1783 19.3742 13.1683 19.4717 13.0281C19.4986 12.9913 19.5221 12.8945 19.5221 12.8144C19.5221 12.6975 19.5019 12.6507 19.4246 12.5706C19.3272 12.4738 19.3205 12.4738 18.9374 12.4738H18.5477V11.9595V11.442L19.1491 11.432C19.7338 11.4219 19.7539 11.4186 19.8379 11.3418C20.0059 11.1849 19.9958 11.1348 19.5926 9.92602C19.3037 9.06786 19.1962 8.79071 19.1323 8.73061C19.0483 8.65047 19.0382 8.65047 18.252 8.64045C17.5834 8.63377 17.4389 8.64045 17.3515 8.68386ZM18.8837 10.0429L19.1122 10.7374H18.2083C17.711 10.7374 17.3045 10.7341 17.3045 10.7274C17.3045 10.7174 17.7278 9.45186 17.7581 9.37506C17.7682 9.34501 17.879 9.33499 18.215 9.34167L18.6552 9.35169L18.8837 10.0429Z" fill="#EE3764"/>
<path id="Vector_3" d="M1.98912 9.80138C1.77072 9.91157 1.62288 10.0552 1.50528 10.2789C1.428 10.4191 1.428 10.4258 1.41792 12.1588L1.40784 13.8952L1.2432 13.9386C0.863523 14.0354 0.420003 14.3994 0.218403 14.7767C-0.0033571 15.2041 2.90657e-06 15.1139 2.90657e-06 18.3562V21.288L0.0974429 21.3948L0.194883 21.505L0.997923 21.5151C1.49184 21.5217 1.83792 21.5117 1.89168 21.4917C1.94208 21.4716 2.01264 21.4082 2.0496 21.3481C2.11008 21.2479 2.1168 21.1778 2.1168 20.6769V20.1193H7.35504H12.5966L12.6067 20.7237L12.6168 21.3281L12.7277 21.4249L12.8352 21.5217H13.6248C14.0549 21.5217 14.448 21.5084 14.495 21.4883C14.5421 21.4716 14.6126 21.4082 14.6496 21.3481C14.7168 21.2412 14.7168 21.1778 14.7168 18.3663C14.7168 15.2175 14.7168 15.2308 14.5152 14.8201C14.317 14.4227 13.9037 14.0655 13.5005 13.9486L13.309 13.8918L13.2989 12.1722L13.2888 10.4525L13.2082 10.2889C13.1107 10.0885 12.9226 9.89822 12.7277 9.7947L12.5832 9.7179L7.38864 9.70788L2.19744 9.70121L1.98912 9.80138ZM12.311 10.4024C12.3816 10.4191 12.4723 10.4625 12.5126 10.5026C12.5832 10.5694 12.5832 10.5961 12.5933 12.2256L12.6034 13.8785L12.2573 13.8684L11.9112 13.8584L11.8944 13.0069L11.8776 12.1555L11.7802 11.9785C11.6693 11.7781 11.5248 11.6412 11.3131 11.5311C11.1754 11.4543 11.1485 11.4543 9.86496 11.4442C8.37648 11.4342 8.35296 11.4376 8.06736 11.6913C7.96992 11.7781 7.85904 11.9217 7.80528 12.0319L7.7112 12.2222L7.70112 13.0504L7.68768 13.8785L7.34832 13.8684L7.0056 13.8584L6.9888 13.0069C6.972 12.1955 6.96864 12.1488 6.89472 12.0052C6.7872 11.8015 6.636 11.6513 6.4344 11.5444L6.2664 11.4543H4.9056C3.55152 11.4543 3.5448 11.4543 3.40032 11.5311C3.06768 11.708 2.87952 11.9651 2.8224 12.3291C2.80224 12.436 2.7888 12.8266 2.7888 13.1973V13.8751H2.4528H2.1168V12.2423V10.6061L2.19408 10.5193C2.2344 10.4692 2.32176 10.4191 2.3856 10.4024C2.54688 10.3657 12.1464 10.3624 12.311 10.4024ZM6.18912 12.2356L6.3 12.3324V13.0971V13.8584H4.9056H3.5112V13.0971V12.3324L3.62208 12.2356L3.7296 12.1388H4.9056H6.0816L6.18912 12.2356ZM11.088 12.2323C11.2123 12.3592 11.2291 12.4794 11.2157 13.2407L11.2056 13.8584H9.8112H8.4168V13.0971V12.3324L8.52768 12.2356L8.6352 12.1388H9.81456H10.9939L11.088 12.2323ZM13.3157 14.6231C13.5374 14.7066 13.8163 14.9704 13.9138 15.1841C13.991 15.3544 13.9944 15.3911 14.0045 16.3528L14.0146 17.3478H7.3584H0.702243L0.712323 16.3361C0.722403 15.351 0.725763 15.3243 0.803043 15.1774C0.903843 14.9871 1.12224 14.7567 1.28688 14.6732C1.35744 14.6364 1.50192 14.593 1.60608 14.5797C1.71024 14.563 4.35456 14.553 7.476 14.5563C12.9226 14.5596 13.1611 14.563 13.3157 14.6231ZM14.0112 19.4348V20.8205H13.6584H13.3056V20.2362V19.6518L13.2082 19.545L13.1107 19.4348H7.3584H1.60608L1.50864 19.545L1.4112 19.6518V20.2362V20.8205H1.0584H0.705603V19.4348V18.049H7.3584H14.0112V19.4348Z" fill="#EE3764"/>
<path id="Vector_4" d="M15.5253 13.9611L15.4211 14.0479V16.9196V19.7912L15.5186 19.888C15.6563 20.0249 15.8579 20.0249 15.9957 19.888L16.0931 19.7912V18.5691V17.347H18.1931H20.2898L20.2999 18.5691L20.3099 19.7912L20.4208 19.888C20.5821 20.0316 20.7971 20.0116 20.9383 19.838C20.992 19.7712 20.9987 19.5675 20.9987 16.9196V14.0679L20.9013 13.9711L20.8039 13.8743H18.2167H15.6295L15.5253 13.9611ZM20.2931 15.5939V16.6457L18.2032 16.6391L16.1099 16.6291L16.0999 15.6273C16.0965 15.0764 16.0999 14.6089 16.1099 14.5855C16.12 14.5521 16.5635 14.5421 18.2099 14.5421H20.2931V15.5939Z" fill="#EE3764"/>
<path id="Vector_5" d="M17.4376 15.2808C17.3065 15.3309 17.236 15.4444 17.236 15.6047C17.236 15.7216 17.2561 15.7683 17.3334 15.8485L17.4308 15.9453H18.2003C18.8756 15.9453 18.9764 15.9386 19.0369 15.8852C19.2116 15.745 19.2318 15.5313 19.0873 15.371L18.9899 15.2608L18.254 15.2541C17.8206 15.2508 17.488 15.2608 17.4376 15.2808Z" fill="#EE3764"/>
</g>
</svg>
