<svg width="25" height="18" viewBox="0 0 25 18" fill="none" xmlns="http://www.w3.org/2000/svg">
<path id="Vector" d="M24.6148 17.0689C24.493 17.1442 24.3563 17.1818 24.2188 17.1818C24.0883 17.1818 23.957 17.1475 23.8398 17.0787L17.9688 13.6628V16.3636C17.9688 17.2661 17.2672 18 16.4062 18H1.5625C0.700781 18 0 17.2661 0 16.3636V1.63636C0 0.733909 0.700781 0 1.5625 0H16.4062C17.2672 0 17.9688 0.733909 17.9688 1.63636V4.33718L23.8398 0.921273C24.0797 0.779727 24.3758 0.783818 24.6148 0.931091C24.8539 1.07836 25 1.34673 25 1.63636V16.3636C25 16.6533 24.8539 16.9216 24.6148 17.0689ZM23.4375 3.02727L17.5664 6.44236C17.5547 6.44973 17.5414 6.44891 17.5289 6.45464C17.4813 6.47918 17.4305 6.49064 17.3789 6.50536C17.3281 6.51845 17.2789 6.534 17.2273 6.53727C17.2133 6.53809 17.2016 6.54545 17.1875 6.54545C17.1516 6.54545 17.1219 6.52909 17.0875 6.52418C17.0328 6.51682 16.9813 6.51027 16.9297 6.49064C16.882 6.47345 16.8406 6.44727 16.7969 6.42027C16.7547 6.39409 16.7133 6.36955 16.6758 6.33436C16.6344 6.29673 16.6031 6.25173 16.5703 6.20509C16.55 6.17645 16.5219 6.15682 16.5047 6.12491C16.4977 6.11182 16.4984 6.09709 16.4922 6.084C16.4695 6.03491 16.4586 5.98255 16.4453 5.92855C16.432 5.87536 16.4172 5.82382 16.4141 5.769C16.4133 5.75427 16.4062 5.742 16.4062 5.72727V1.63636H1.5625V16.3636H16.4062V12.2727C16.4062 12.258 16.4133 12.2457 16.4141 12.231C16.4172 12.177 16.432 12.1255 16.4453 12.0715C16.4586 12.0175 16.4695 11.9651 16.4922 11.916C16.4984 11.9029 16.4977 11.8882 16.5047 11.8751C16.5219 11.8432 16.55 11.8235 16.5703 11.7949C16.6031 11.7483 16.6344 11.7041 16.6758 11.6656C16.7133 11.6305 16.7539 11.6059 16.7969 11.5797C16.8398 11.5527 16.882 11.5265 16.9297 11.5094C16.9813 11.4897 17.0328 11.4832 17.0867 11.4758C17.1211 11.4709 17.1516 11.4545 17.1875 11.4545C17.2016 11.4545 17.2133 11.4619 17.2273 11.4627C17.2789 11.466 17.3281 11.4815 17.3789 11.4946C17.4305 11.5094 17.4813 11.5208 17.5289 11.5445C17.5406 11.5511 17.5547 11.5503 17.5664 11.5576L23.4375 14.9727V3.02727Z" fill="#EE3764"/>
</svg>
